<mxfile host="app.diagrams.net" modified="2022-03-31T08:35:39.013Z" agent="5.0 (Windows NT 10.0; Win64; x64) AppleWebKit/537.36 (KHTML, like Gecko) Chrome/99.0.4844.84 Safari/537.36" etag="5JQI5xMRryVx7m3COUmd" version="17.3.0" type="github">
  <diagram id="qbCqgpMWOiuEWN94IkfY" name="Page-1">
    <mxGraphModel dx="2423" dy="1170" grid="0" gridSize="10" guides="1" tooltips="1" connect="1" arrows="1" fold="1" page="1" pageScale="1" pageWidth="827" pageHeight="1169" math="0" shadow="0">
      <root>
        <mxCell id="0" />
        <mxCell id="1" parent="0" />
        <mxCell id="WtmbnqVcyweyvXS57DGl-1" value="&lt;b&gt;TimesheetEntry&lt;/b&gt;" style="swimlane;fontStyle=0;align=center;verticalAlign=middle;childLayout=stackLayout;horizontal=1;startSize=29;horizontalStack=0;resizeParent=1;resizeParentMax=0;resizeLast=0;collapsible=0;marginBottom=0;html=1;fontSize=12;labelPosition=center;verticalLabelPosition=middle;container=0;strokeColor=default;swimlaneLine=1;rounded=0;shadow=0;glass=0;sketch=0;perimeterSpacing=0;" parent="1" vertex="1">
          <mxGeometry x="828" y="122" width="151" height="587" as="geometry" />
        </mxCell>
        <mxCell id="WtmbnqVcyweyvXS57DGl-2" value="- id: Long" style="text;strokeColor=none;fillColor=none;align=left;verticalAlign=top;spacingLeft=4;spacingRight=4;overflow=hidden;rotatable=0;points=[[0,0.5],[1,0.5]];portConstraint=eastwest;container=0;fontStyle=0" parent="WtmbnqVcyweyvXS57DGl-1" vertex="1">
          <mxGeometry y="29" width="151" height="26" as="geometry" />
        </mxCell>
        <mxCell id="WtmbnqVcyweyvXS57DGl-3" value="- costCode: String " style="text;strokeColor=none;fillColor=none;align=left;verticalAlign=top;spacingLeft=4;spacingRight=4;overflow=hidden;rotatable=0;points=[[0,0.5],[1,0.5]];portConstraint=eastwest;container=0;fontStyle=0" parent="WtmbnqVcyweyvXS57DGl-1" vertex="1">
          <mxGeometry y="55" width="151" height="26" as="geometry" />
        </mxCell>
        <mxCell id="WtmbnqVcyweyvXS57DGl-4" value="- activity: UUID" style="text;strokeColor=none;fillColor=none;align=left;verticalAlign=top;spacingLeft=4;spacingRight=4;overflow=hidden;rotatable=0;points=[[0,0.5],[1,0.5]];portConstraint=eastwest;container=0;fontStyle=0" parent="WtmbnqVcyweyvXS57DGl-1" vertex="1">
          <mxGeometry y="81" width="151" height="26" as="geometry" />
        </mxCell>
        <mxCell id="WtmbnqVcyweyvXS57DGl-5" value="- activitySummary: UUID" style="text;strokeColor=none;fillColor=none;align=left;verticalAlign=top;spacingLeft=4;spacingRight=4;overflow=hidden;rotatable=0;points=[[0,0.5],[1,0.5]];portConstraint=eastwest;container=0;fontStyle=0" parent="WtmbnqVcyweyvXS57DGl-1" vertex="1">
          <mxGeometry y="107" width="151" height="26" as="geometry" />
        </mxCell>
        <mxCell id="WtmbnqVcyweyvXS57DGl-6" value="- employee: UUID" style="text;strokeColor=none;fillColor=none;align=left;verticalAlign=top;spacingLeft=4;spacingRight=4;overflow=hidden;rotatable=0;points=[[0,0.5],[1,0.5]];portConstraint=eastwest;container=0;fontStyle=0" parent="WtmbnqVcyweyvXS57DGl-1" vertex="1">
          <mxGeometry y="133" width="151" height="26" as="geometry" />
        </mxCell>
        <mxCell id="WtmbnqVcyweyvXS57DGl-7" value="- businessUnit: UUID" style="text;strokeColor=none;fillColor=none;align=left;verticalAlign=top;spacingLeft=4;spacingRight=4;overflow=hidden;rotatable=0;points=[[0,0.5],[1,0.5]];portConstraint=eastwest;container=0;fontStyle=0" parent="WtmbnqVcyweyvXS57DGl-1" vertex="1">
          <mxGeometry y="159" width="151" height="26" as="geometry" />
        </mxCell>
        <mxCell id="WtmbnqVcyweyvXS57DGl-9" value="- summary: String " style="text;strokeColor=none;fillColor=none;align=left;verticalAlign=top;spacingLeft=4;spacingRight=4;overflow=hidden;rotatable=0;points=[[0,0.5],[1,0.5]];portConstraint=eastwest;container=0;fontStyle=0" parent="WtmbnqVcyweyvXS57DGl-1" vertex="1">
          <mxGeometry y="185" width="151" height="26" as="geometry" />
        </mxCell>
        <mxCell id="WtmbnqVcyweyvXS57DGl-10" value="- hours: Float" style="text;strokeColor=none;fillColor=none;align=left;verticalAlign=top;spacingLeft=4;spacingRight=4;overflow=hidden;rotatable=0;points=[[0,0.5],[1,0.5]];portConstraint=eastwest;container=0;fontStyle=0" parent="WtmbnqVcyweyvXS57DGl-1" vertex="1">
          <mxGeometry y="211" width="151" height="26" as="geometry" />
        </mxCell>
        <mxCell id="WtmbnqVcyweyvXS57DGl-11" value="- year: int" style="text;strokeColor=none;fillColor=none;align=left;verticalAlign=top;spacingLeft=4;spacingRight=4;overflow=hidden;rotatable=0;points=[[0,0.5],[1,0.5]];portConstraint=eastwest;container=0;fontStyle=0" parent="WtmbnqVcyweyvXS57DGl-1" vertex="1">
          <mxGeometry y="237" width="151" height="26" as="geometry" />
        </mxCell>
        <mxCell id="WtmbnqVcyweyvXS57DGl-13" value="- monthOfYear: int" style="text;strokeColor=none;fillColor=none;align=left;verticalAlign=top;spacingLeft=4;spacingRight=4;overflow=hidden;rotatable=0;points=[[0,0.5],[1,0.5]];portConstraint=eastwest;container=0;fontStyle=0" parent="WtmbnqVcyweyvXS57DGl-1" vertex="1">
          <mxGeometry y="263" width="151" height="26" as="geometry" />
        </mxCell>
        <mxCell id="WtmbnqVcyweyvXS57DGl-17" value="- weekOfYear: int" style="text;strokeColor=none;fillColor=none;align=left;verticalAlign=top;spacingLeft=4;spacingRight=4;overflow=hidden;rotatable=0;points=[[0,0.5],[1,0.5]];portConstraint=eastwest;container=0;fontStyle=0" parent="WtmbnqVcyweyvXS57DGl-1" vertex="1">
          <mxGeometry y="289" width="151" height="26" as="geometry" />
        </mxCell>
        <mxCell id="WtmbnqVcyweyvXS57DGl-18" value="- dayOfYear: int" style="text;strokeColor=none;fillColor=none;align=left;verticalAlign=top;spacingLeft=4;spacingRight=4;overflow=hidden;rotatable=0;points=[[0,0.5],[1,0.5]];portConstraint=eastwest;container=0;fontStyle=0" parent="WtmbnqVcyweyvXS57DGl-1" vertex="1">
          <mxGeometry y="315" width="151" height="26" as="geometry" />
        </mxCell>
        <mxCell id="WtmbnqVcyweyvXS57DGl-20" value="- manHourCost: Float" style="text;strokeColor=none;fillColor=none;align=left;verticalAlign=top;spacingLeft=4;spacingRight=4;overflow=hidden;rotatable=0;points=[[0,0.5],[1,0.5]];portConstraint=eastwest;container=0;fontStyle=0" parent="WtmbnqVcyweyvXS57DGl-1" vertex="1">
          <mxGeometry y="341" width="151" height="26" as="geometry" />
        </mxCell>
        <mxCell id="WtmbnqVcyweyvXS57DGl-22" value="- createdBy: UUID" style="text;strokeColor=none;fillColor=none;align=left;verticalAlign=top;spacingLeft=4;spacingRight=4;overflow=hidden;rotatable=0;points=[[0,0.5],[1,0.5]];portConstraint=eastwest;container=0;fontStyle=0" parent="WtmbnqVcyweyvXS57DGl-1" vertex="1">
          <mxGeometry y="367" width="151" height="26" as="geometry" />
        </mxCell>
        <mxCell id="WtmbnqVcyweyvXS57DGl-24" value="&lt;span style=&quot;color: rgb(0 , 0 , 0) ; font-family: &amp;#34;helvetica&amp;#34; ; font-size: 12px ; font-style: normal ; font-weight: 400 ; letter-spacing: normal ; text-align: left ; text-indent: 0px ; text-transform: none ; word-spacing: 0px ; background-color: rgb(248 , 249 , 250) ; display: inline ; float: none&quot;&gt;-&amp;nbsp;&lt;span style=&quot;font-family: &amp;#34;helvetica&amp;#34;&quot;&gt;date&lt;/span&gt;: LocalDate&lt;/span&gt;" style="text;whiteSpace=wrap;html=1;" parent="WtmbnqVcyweyvXS57DGl-1" vertex="1">
          <mxGeometry y="393" width="151" height="28" as="geometry" />
        </mxCell>
        <mxCell id="WtmbnqVcyweyvXS57DGl-26" value="&lt;span style=&quot;color: rgb(0 , 0 , 0) ; font-family: &amp;#34;helvetica&amp;#34; ; font-size: 12px ; font-style: normal ; font-weight: 400 ; letter-spacing: normal ; text-align: left ; text-indent: 0px ; text-transform: none ; word-spacing: 0px ; background-color: rgb(248 , 249 , 250) ; display: inline ; float: none&quot;&gt;-&amp;nbsp;&lt;span style=&quot;font-family: &amp;#34;helvetica&amp;#34;&quot;&gt;validated&lt;/span&gt;: Boolean&lt;/span&gt;" style="text;whiteSpace=wrap;html=1;" parent="WtmbnqVcyweyvXS57DGl-1" vertex="1">
          <mxGeometry y="421" width="151" height="28" as="geometry" />
        </mxCell>
        <mxCell id="WtmbnqVcyweyvXS57DGl-28" value="&lt;span style=&quot;color: rgb(0 , 0 , 0) ; font-family: &amp;#34;helvetica&amp;#34; ; font-size: 12px ; font-style: normal ; font-weight: 400 ; letter-spacing: normal ; text-align: left ; text-indent: 0px ; text-transform: none ; word-spacing: 0px ; background-color: rgb(248 , 249 , 250) ; display: inline ; float: none&quot;&gt;-&amp;nbsp;&lt;span style=&quot;font-family: &amp;#34;helvetica&amp;#34;&quot;&gt;locked&lt;/span&gt;: Boolean&lt;/span&gt;" style="text;whiteSpace=wrap;html=1;" parent="WtmbnqVcyweyvXS57DGl-1" vertex="1">
          <mxGeometry y="449" width="151" height="28" as="geometry" />
        </mxCell>
        <mxCell id="WtmbnqVcyweyvXS57DGl-29" value="&lt;span style=&quot;text-align: left ; text-indent: 0px ; background-color: rgb(248 , 249 , 250) ; display: inline ; float: none&quot;&gt;&lt;font face=&quot;helvetica&quot;&gt;- validationDate: LocalDate&lt;/font&gt;&lt;/span&gt;" style="text;whiteSpace=wrap;html=1;" parent="WtmbnqVcyweyvXS57DGl-1" vertex="1">
          <mxGeometry y="477" width="151" height="28" as="geometry" />
        </mxCell>
        <mxCell id="WtmbnqVcyweyvXS57DGl-31" value="- updatedBy: UUID" style="text;strokeColor=#b85450;fillColor=#f8cecc;align=left;verticalAlign=top;spacingLeft=4;spacingRight=4;overflow=hidden;rotatable=0;points=[[0,0.5],[1,0.5]];portConstraint=eastwest;container=0;fontStyle=0" parent="WtmbnqVcyweyvXS57DGl-1" vertex="1">
          <mxGeometry y="505" width="151" height="26" as="geometry" />
        </mxCell>
        <mxCell id="WtmbnqVcyweyvXS57DGl-33" value="&lt;span style=&quot;text-align: left ; text-indent: 0px ; background-color: rgb(248 , 249 , 250) ; display: inline ; float: none&quot;&gt;&lt;font face=&quot;helvetica&quot;&gt;-&amp;nbsp;&lt;/font&gt;updateDate&lt;font face=&quot;helvetica&quot;&gt;: LocalDate&lt;/font&gt;&lt;/span&gt;" style="text;whiteSpace=wrap;html=1;fillColor=#f8cecc;strokeColor=#b85450;" parent="WtmbnqVcyweyvXS57DGl-1" vertex="1">
          <mxGeometry y="531" width="151" height="28" as="geometry" />
        </mxCell>
        <mxCell id="WtmbnqVcyweyvXS57DGl-36" value="&lt;span style=&quot;text-align: left ; text-indent: 0px ; background-color: rgb(248 , 249 , 250) ; display: inline ; float: none&quot;&gt;&lt;font face=&quot;helvetica&quot;&gt;-&amp;nbsp;&lt;/font&gt;jiraIssueKey&lt;font face=&quot;helvetica&quot;&gt;: String&lt;/font&gt;&lt;/span&gt;" style="text;whiteSpace=wrap;html=1;fillColor=#f8cecc;strokeColor=#b85450;" parent="WtmbnqVcyweyvXS57DGl-1" vertex="1">
          <mxGeometry y="559" width="151" height="28" as="geometry" />
        </mxCell>
        <mxCell id="WtmbnqVcyweyvXS57DGl-55" style="edgeStyle=orthogonalEdgeStyle;rounded=0;orthogonalLoop=1;jettySize=auto;html=1;startArrow=none;startFill=0;endArrow=block;endFill=0;endSize=5;startSize=5;dashed=1;" parent="1" source="WtmbnqVcyweyvXS57DGl-112" target="WtmbnqVcyweyvXS57DGl-1" edge="1">
          <mxGeometry relative="1" as="geometry">
            <Array as="points">
              <mxPoint x="545" y="746" />
              <mxPoint x="898" y="746" />
            </Array>
          </mxGeometry>
        </mxCell>
        <mxCell id="WtmbnqVcyweyvXS57DGl-44" value="&lt;b&gt;&amp;lt;&amp;lt;enum&amp;gt;&amp;gt;&lt;/b&gt;&lt;br&gt;&lt;div style=&quot;text-align: left&quot;&gt;&lt;span&gt;&lt;b&gt;TimeType&lt;/b&gt;&lt;/span&gt;&lt;/div&gt;" style="swimlane;fontStyle=0;align=center;verticalAlign=middle;childLayout=stackLayout;horizontal=1;startSize=29;horizontalStack=0;resizeParent=1;resizeParentMax=0;resizeLast=0;collapsible=0;marginBottom=0;html=1;fontSize=12;labelPosition=center;verticalLabelPosition=middle;container=0;swimlaneLine=1;rounded=0;sketch=0;glass=0;" parent="1" vertex="1">
          <mxGeometry x="400" y="347" width="150" height="81" as="geometry" />
        </mxCell>
        <mxCell id="WtmbnqVcyweyvXS57DGl-45" value="REGULAR" style="text;strokeColor=none;fillColor=none;align=left;verticalAlign=top;spacingLeft=4;spacingRight=4;overflow=hidden;rotatable=0;points=[[0,0.5],[1,0.5]];portConstraint=eastwest;container=0;fontStyle=0" parent="WtmbnqVcyweyvXS57DGl-44" vertex="1">
          <mxGeometry y="29" width="150" height="26" as="geometry" />
        </mxCell>
        <mxCell id="WtmbnqVcyweyvXS57DGl-46" value="OVERTIME" style="text;strokeColor=none;fillColor=none;align=left;verticalAlign=top;spacingLeft=4;spacingRight=4;overflow=hidden;rotatable=0;points=[[0,0.5],[1,0.5]];portConstraint=eastwest;container=0;fontStyle=0" parent="WtmbnqVcyweyvXS57DGl-44" vertex="1">
          <mxGeometry y="55" width="150" height="26" as="geometry" />
        </mxCell>
        <mxCell id="WtmbnqVcyweyvXS57DGl-49" value="&lt;b&gt;&amp;lt;&amp;lt;enum&amp;gt;&amp;gt;&lt;/b&gt;&lt;br&gt;&lt;div style=&quot;text-align: left&quot;&gt;&lt;b&gt;Location&lt;/b&gt;&lt;br&gt;&lt;/div&gt;" style="swimlane;fontStyle=0;align=center;verticalAlign=middle;childLayout=stackLayout;horizontal=1;startSize=29;horizontalStack=0;resizeParent=1;resizeParentMax=0;resizeLast=0;collapsible=0;marginBottom=0;html=1;fontSize=12;labelPosition=center;verticalLabelPosition=middle;container=0;swimlaneLine=1;rounded=0;sketch=0;glass=0;" parent="1" vertex="1">
          <mxGeometry x="400" y="458" width="150" height="81" as="geometry" />
        </mxCell>
        <mxCell id="WtmbnqVcyweyvXS57DGl-50" value="OFFICE" style="text;strokeColor=none;fillColor=none;align=left;verticalAlign=top;spacingLeft=4;spacingRight=4;overflow=hidden;rotatable=0;points=[[0,0.5],[1,0.5]];portConstraint=eastwest;container=0;fontStyle=0" parent="WtmbnqVcyweyvXS57DGl-49" vertex="1">
          <mxGeometry y="29" width="150" height="26" as="geometry" />
        </mxCell>
        <mxCell id="WtmbnqVcyweyvXS57DGl-51" value="REMOTE" style="text;strokeColor=none;fillColor=none;align=left;verticalAlign=top;spacingLeft=4;spacingRight=4;overflow=hidden;rotatable=0;points=[[0,0.5],[1,0.5]];portConstraint=eastwest;container=0;fontStyle=0" parent="WtmbnqVcyweyvXS57DGl-49" vertex="1">
          <mxGeometry y="55" width="150" height="26" as="geometry" />
        </mxCell>
        <mxCell id="WtmbnqVcyweyvXS57DGl-52" value="&lt;b&gt;&amp;lt;&amp;lt;enum&amp;gt;&amp;gt;&lt;/b&gt;&lt;br&gt;&lt;div style=&quot;text-align: left&quot;&gt;&lt;b&gt;Location&lt;/b&gt;&lt;br&gt;&lt;/div&gt;" style="swimlane;fontStyle=0;align=center;verticalAlign=middle;childLayout=stackLayout;horizontal=1;startSize=29;horizontalStack=0;resizeParent=1;resizeParentMax=0;resizeLast=0;collapsible=0;marginBottom=0;html=1;fontSize=12;labelPosition=center;verticalLabelPosition=middle;container=0;swimlaneLine=1;rounded=0;sketch=0;glass=0;" parent="1" vertex="1">
          <mxGeometry x="400" y="571" width="150" height="81" as="geometry" />
        </mxCell>
        <mxCell id="WtmbnqVcyweyvXS57DGl-53" value="OFFICE" style="text;strokeColor=none;fillColor=none;align=left;verticalAlign=top;spacingLeft=4;spacingRight=4;overflow=hidden;rotatable=0;points=[[0,0.5],[1,0.5]];portConstraint=eastwest;container=0;fontStyle=0" parent="WtmbnqVcyweyvXS57DGl-52" vertex="1">
          <mxGeometry y="29" width="150" height="26" as="geometry" />
        </mxCell>
        <mxCell id="WtmbnqVcyweyvXS57DGl-54" value="REMOTE" style="text;strokeColor=none;fillColor=none;align=left;verticalAlign=top;spacingLeft=4;spacingRight=4;overflow=hidden;rotatable=0;points=[[0,0.5],[1,0.5]];portConstraint=eastwest;container=0;fontStyle=0" parent="WtmbnqVcyweyvXS57DGl-52" vertex="1">
          <mxGeometry y="55" width="150" height="26" as="geometry" />
        </mxCell>
        <mxCell id="WtmbnqVcyweyvXS57DGl-58" value="&lt;b&gt;EntryComment&lt;/b&gt;" style="swimlane;fontStyle=0;align=center;verticalAlign=middle;childLayout=stackLayout;horizontal=1;startSize=29;horizontalStack=0;resizeParent=1;resizeParentMax=0;resizeLast=0;collapsible=0;marginBottom=0;html=1;fontSize=12;labelPosition=center;verticalLabelPosition=middle;container=0;strokeColor=#b85450;swimlaneLine=1;rounded=0;shadow=0;glass=0;sketch=0;perimeterSpacing=0;fillColor=#f8cecc;" parent="1" vertex="1">
          <mxGeometry x="1095" y="347" width="120" height="133" as="geometry" />
        </mxCell>
        <mxCell id="WtmbnqVcyweyvXS57DGl-59" value="- id: Long" style="text;strokeColor=none;fillColor=none;align=left;verticalAlign=top;spacingLeft=4;spacingRight=4;overflow=hidden;rotatable=0;points=[[0,0.5],[1,0.5]];portConstraint=eastwest;container=0;fontStyle=0" parent="WtmbnqVcyweyvXS57DGl-58" vertex="1">
          <mxGeometry y="29" width="120" height="26" as="geometry" />
        </mxCell>
        <mxCell id="WtmbnqVcyweyvXS57DGl-60" value="- text: String " style="text;strokeColor=none;fillColor=none;align=left;verticalAlign=top;spacingLeft=4;spacingRight=4;overflow=hidden;rotatable=0;points=[[0,0.5],[1,0.5]];portConstraint=eastwest;container=0;fontStyle=0" parent="WtmbnqVcyweyvXS57DGl-58" vertex="1">
          <mxGeometry y="55" width="120" height="26" as="geometry" />
        </mxCell>
        <mxCell id="WtmbnqVcyweyvXS57DGl-61" value="- user: UUID" style="text;strokeColor=none;fillColor=none;align=left;verticalAlign=top;spacingLeft=4;spacingRight=4;overflow=hidden;rotatable=0;points=[[0,0.5],[1,0.5]];portConstraint=eastwest;container=0;fontStyle=0" parent="WtmbnqVcyweyvXS57DGl-58" vertex="1">
          <mxGeometry y="81" width="120" height="26" as="geometry" />
        </mxCell>
        <mxCell id="WtmbnqVcyweyvXS57DGl-62" value="- date: LocalDate" style="text;strokeColor=none;fillColor=none;align=left;verticalAlign=top;spacingLeft=4;spacingRight=4;overflow=hidden;rotatable=0;points=[[0,0.5],[1,0.5]];portConstraint=eastwest;container=0;fontStyle=0" parent="WtmbnqVcyweyvXS57DGl-58" vertex="1">
          <mxGeometry y="107" width="120" height="26" as="geometry" />
        </mxCell>
        <mxCell id="WtmbnqVcyweyvXS57DGl-63" style="edgeStyle=orthogonalEdgeStyle;rounded=0;orthogonalLoop=1;jettySize=auto;html=1;startArrow=none;startFill=0;endArrow=none;endFill=0;startSize=5;endSize=5;" parent="1" source="WtmbnqVcyweyvXS57DGl-1" target="WtmbnqVcyweyvXS57DGl-58" edge="1">
          <mxGeometry relative="1" as="geometry">
            <mxPoint x="675.8571951729912" y="294" as="targetPoint" />
            <Array as="points">
              <mxPoint x="1063" y="414" />
              <mxPoint x="1063" y="414" />
            </Array>
          </mxGeometry>
        </mxCell>
        <mxCell id="WtmbnqVcyweyvXS57DGl-64" value="*" style="edgeLabel;html=1;align=center;verticalAlign=middle;resizable=0;points=[];" parent="WtmbnqVcyweyvXS57DGl-63" vertex="1" connectable="0">
          <mxGeometry x="0.7821" y="3" relative="1" as="geometry">
            <mxPoint y="3" as="offset" />
          </mxGeometry>
        </mxCell>
        <mxCell id="WtmbnqVcyweyvXS57DGl-65" value="1" style="edgeLabel;html=1;align=center;verticalAlign=middle;resizable=0;points=[];" parent="WtmbnqVcyweyvXS57DGl-63" vertex="1" connectable="0">
          <mxGeometry x="-0.8475" y="-1" relative="1" as="geometry">
            <mxPoint y="-2" as="offset" />
          </mxGeometry>
        </mxCell>
        <mxCell id="WtmbnqVcyweyvXS57DGl-126" style="edgeStyle=orthogonalEdgeStyle;rounded=0;orthogonalLoop=1;jettySize=auto;html=1;dashed=1;startArrow=none;startFill=0;endArrow=block;endFill=0;startSize=5;endSize=5;" parent="1" source="WtmbnqVcyweyvXS57DGl-66" target="WtmbnqVcyweyvXS57DGl-1" edge="1">
          <mxGeometry relative="1" as="geometry">
            <mxPoint x="319" y="321" as="targetPoint" />
            <Array as="points">
              <mxPoint x="89" y="746" />
              <mxPoint x="898" y="746" />
            </Array>
          </mxGeometry>
        </mxCell>
        <mxCell id="WtmbnqVcyweyvXS57DGl-66" value="&lt;b&gt;EntryComment&lt;/b&gt;" style="swimlane;fontStyle=0;align=center;verticalAlign=middle;childLayout=stackLayout;horizontal=1;startSize=29;horizontalStack=0;resizeParent=1;resizeParentMax=0;resizeLast=0;collapsible=0;marginBottom=0;html=1;fontSize=12;labelPosition=center;verticalLabelPosition=middle;container=0;swimlaneLine=1;rounded=0;shadow=0;glass=0;sketch=0;perimeterSpacing=0;" parent="1" vertex="1">
          <mxGeometry x="20" y="800" width="137" height="161" as="geometry" />
        </mxCell>
        <mxCell id="WtmbnqVcyweyvXS57DGl-67" value="- training: UUID" style="text;strokeColor=none;fillColor=none;align=left;verticalAlign=top;spacingLeft=4;spacingRight=4;overflow=hidden;rotatable=0;points=[[0,0.5],[1,0.5]];portConstraint=eastwest;container=0;fontStyle=0" parent="WtmbnqVcyweyvXS57DGl-66" vertex="1">
          <mxGeometry y="29" width="137" height="26" as="geometry" />
        </mxCell>
        <mxCell id="WtmbnqVcyweyvXS57DGl-68" value="- trainingName: String " style="text;strokeColor=none;fillColor=none;align=left;verticalAlign=top;spacingLeft=4;spacingRight=4;overflow=hidden;rotatable=0;points=[[0,0.5],[1,0.5]];portConstraint=eastwest;container=0;fontStyle=0" parent="WtmbnqVcyweyvXS57DGl-66" vertex="1">
          <mxGeometry y="55" width="137" height="26" as="geometry" />
        </mxCell>
        <mxCell id="WtmbnqVcyweyvXS57DGl-69" value="- category: UUID" style="text;strokeColor=none;fillColor=none;align=left;verticalAlign=top;spacingLeft=4;spacingRight=4;overflow=hidden;rotatable=0;points=[[0,0.5],[1,0.5]];portConstraint=eastwest;container=0;fontStyle=0" parent="WtmbnqVcyweyvXS57DGl-66" vertex="1">
          <mxGeometry y="81" width="137" height="26" as="geometry" />
        </mxCell>
        <mxCell id="WtmbnqVcyweyvXS57DGl-70" value="- categoryName: String" style="text;strokeColor=none;fillColor=none;align=left;verticalAlign=top;spacingLeft=4;spacingRight=4;overflow=hidden;rotatable=0;points=[[0,0.5],[1,0.5]];portConstraint=eastwest;container=0;fontStyle=0" parent="WtmbnqVcyweyvXS57DGl-66" vertex="1">
          <mxGeometry y="107" width="137" height="26" as="geometry" />
        </mxCell>
        <mxCell id="WtmbnqVcyweyvXS57DGl-72" value="&lt;span style=&quot;color: rgb(0 , 0 , 0) ; font-family: &amp;#34;helvetica&amp;#34; ; font-size: 12px ; font-style: normal ; font-weight: 400 ; letter-spacing: normal ; text-align: left ; text-indent: 0px ; text-transform: none ; word-spacing: 0px ; background-color: rgb(248 , 249 , 250) ; display: inline ; float: none&quot;&gt;-&amp;nbsp;&lt;span style=&quot;font-family: &amp;#34;helvetica&amp;#34;&quot;&gt;isTrainer&lt;/span&gt;: Boolean&lt;/span&gt;" style="text;whiteSpace=wrap;html=1;" parent="WtmbnqVcyweyvXS57DGl-66" vertex="1">
          <mxGeometry y="133" width="137" height="28" as="geometry" />
        </mxCell>
        <mxCell id="WtmbnqVcyweyvXS57DGl-73" value="&lt;b&gt;&amp;lt;&amp;lt;enum&amp;gt;&amp;gt;&lt;/b&gt;&lt;br&gt;&lt;div style=&quot;text-align: left&quot;&gt;&lt;b&gt;Location&lt;/b&gt;&lt;br&gt;&lt;/div&gt;" style="swimlane;fontStyle=0;align=center;verticalAlign=middle;childLayout=stackLayout;horizontal=1;startSize=29;horizontalStack=0;resizeParent=1;resizeParentMax=0;resizeLast=0;collapsible=0;marginBottom=0;html=1;fontSize=12;labelPosition=center;verticalLabelPosition=middle;container=0;swimlaneLine=1;rounded=0;sketch=0;glass=0;" parent="1" vertex="1">
          <mxGeometry x="14" y="997" width="151" height="81" as="geometry" />
        </mxCell>
        <mxCell id="WtmbnqVcyweyvXS57DGl-74" value="SELF_LEARNING" style="text;strokeColor=none;fillColor=none;align=left;verticalAlign=top;spacingLeft=4;spacingRight=4;overflow=hidden;rotatable=0;points=[[0,0.5],[1,0.5]];portConstraint=eastwest;container=0;fontStyle=0" parent="WtmbnqVcyweyvXS57DGl-73" vertex="1">
          <mxGeometry y="29" width="151" height="26" as="geometry" />
        </mxCell>
        <mxCell id="WtmbnqVcyweyvXS57DGl-75" value="SUPERVISED_TRAINING" style="text;strokeColor=none;fillColor=none;align=left;verticalAlign=top;spacingLeft=4;spacingRight=4;overflow=hidden;rotatable=0;points=[[0,0.5],[1,0.5]];portConstraint=eastwest;container=0;fontStyle=0" parent="WtmbnqVcyweyvXS57DGl-73" vertex="1">
          <mxGeometry y="55" width="151" height="26" as="geometry" />
        </mxCell>
        <mxCell id="WtmbnqVcyweyvXS57DGl-76" style="edgeStyle=orthogonalEdgeStyle;rounded=0;orthogonalLoop=1;jettySize=auto;html=1;startArrow=none;startFill=0;endArrow=classic;endFill=1;startSize=5;endSize=5;dashed=1;" parent="1" source="WtmbnqVcyweyvXS57DGl-66" target="WtmbnqVcyweyvXS57DGl-73" edge="1">
          <mxGeometry relative="1" as="geometry">
            <Array as="points">
              <mxPoint x="89" y="979" />
              <mxPoint x="89" y="979" />
            </Array>
          </mxGeometry>
        </mxCell>
        <mxCell id="WtmbnqVcyweyvXS57DGl-127" style="edgeStyle=orthogonalEdgeStyle;rounded=0;orthogonalLoop=1;jettySize=auto;html=1;dashed=1;startArrow=none;startFill=0;endArrow=block;endFill=0;startSize=5;endSize=5;" parent="1" source="WtmbnqVcyweyvXS57DGl-77" target="WtmbnqVcyweyvXS57DGl-1" edge="1">
          <mxGeometry relative="1" as="geometry">
            <Array as="points">
              <mxPoint x="337" y="746" />
              <mxPoint x="898" y="746" />
            </Array>
          </mxGeometry>
        </mxCell>
        <mxCell id="WtmbnqVcyweyvXS57DGl-77" value="&lt;b&gt;FixedPriceEntry&lt;/b&gt;" style="swimlane;fontStyle=0;align=center;verticalAlign=middle;childLayout=stackLayout;horizontal=1;startSize=29;horizontalStack=0;resizeParent=1;resizeParentMax=0;resizeLast=0;collapsible=0;marginBottom=0;html=1;fontSize=12;labelPosition=center;verticalLabelPosition=middle;container=0;swimlaneLine=1;rounded=0;shadow=0;glass=0;sketch=0;perimeterSpacing=0;" parent="1" vertex="1">
          <mxGeometry x="247" y="800" width="180" height="419" as="geometry" />
        </mxCell>
        <mxCell id="WtmbnqVcyweyvXS57DGl-78" value="- iteration: UUID" style="text;strokeColor=none;fillColor=none;align=left;verticalAlign=top;spacingLeft=4;spacingRight=4;overflow=hidden;rotatable=0;points=[[0,0.5],[1,0.5]];portConstraint=eastwest;container=0;fontStyle=0" parent="WtmbnqVcyweyvXS57DGl-77" vertex="1">
          <mxGeometry y="29" width="180" height="26" as="geometry" />
        </mxCell>
        <mxCell id="WtmbnqVcyweyvXS57DGl-79" value="- iterationSummary: String " style="text;strokeColor=none;fillColor=none;align=left;verticalAlign=top;spacingLeft=4;spacingRight=4;overflow=hidden;rotatable=0;points=[[0,0.5],[1,0.5]];portConstraint=eastwest;container=0;fontStyle=0" parent="WtmbnqVcyweyvXS57DGl-77" vertex="1">
          <mxGeometry y="55" width="180" height="26" as="geometry" />
        </mxCell>
        <mxCell id="WtmbnqVcyweyvXS57DGl-80" value="- iterationCode: String" style="text;strokeColor=none;fillColor=none;align=left;verticalAlign=top;spacingLeft=4;spacingRight=4;overflow=hidden;rotatable=0;points=[[0,0.5],[1,0.5]];portConstraint=eastwest;container=0;fontStyle=0" parent="WtmbnqVcyweyvXS57DGl-77" vertex="1">
          <mxGeometry y="81" width="180" height="26" as="geometry" />
        </mxCell>
        <mxCell id="WtmbnqVcyweyvXS57DGl-81" value="- categoryName: String" style="text;strokeColor=none;fillColor=none;align=left;verticalAlign=top;spacingLeft=4;spacingRight=4;overflow=hidden;rotatable=0;points=[[0,0.5],[1,0.5]];portConstraint=eastwest;container=0;fontStyle=0" parent="WtmbnqVcyweyvXS57DGl-77" vertex="1">
          <mxGeometry y="107" width="180" height="26" as="geometry" />
        </mxCell>
        <mxCell id="WtmbnqVcyweyvXS57DGl-84" value="- taskSummary: String" style="text;strokeColor=none;fillColor=none;align=left;verticalAlign=top;spacingLeft=4;spacingRight=4;overflow=hidden;rotatable=0;points=[[0,0.5],[1,0.5]];portConstraint=eastwest;container=0;fontStyle=0" parent="WtmbnqVcyweyvXS57DGl-77" vertex="1">
          <mxGeometry y="133" width="180" height="26" as="geometry" />
        </mxCell>
        <mxCell id="WtmbnqVcyweyvXS57DGl-86" value="- taskCode: String" style="text;strokeColor=none;fillColor=none;align=left;verticalAlign=top;spacingLeft=4;spacingRight=4;overflow=hidden;rotatable=0;points=[[0,0.5],[1,0.5]];portConstraint=eastwest;container=0;fontStyle=0" parent="WtmbnqVcyweyvXS57DGl-77" vertex="1">
          <mxGeometry y="159" width="180" height="26" as="geometry" />
        </mxCell>
        <mxCell id="WtmbnqVcyweyvXS57DGl-87" value="- clientOrder: UUID" style="text;strokeColor=none;fillColor=none;align=left;verticalAlign=top;spacingLeft=4;spacingRight=4;overflow=hidden;rotatable=0;points=[[0,0.5],[1,0.5]];portConstraint=eastwest;container=0;fontStyle=0" parent="WtmbnqVcyweyvXS57DGl-77" vertex="1">
          <mxGeometry y="185" width="180" height="26" as="geometry" />
        </mxCell>
        <mxCell id="WtmbnqVcyweyvXS57DGl-89" value="- clientOrderSummary: String" style="text;strokeColor=none;fillColor=none;align=left;verticalAlign=top;spacingLeft=4;spacingRight=4;overflow=hidden;rotatable=0;points=[[0,0.5],[1,0.5]];portConstraint=eastwest;container=0;fontStyle=0" parent="WtmbnqVcyweyvXS57DGl-77" vertex="1">
          <mxGeometry y="211" width="180" height="26" as="geometry" />
        </mxCell>
        <mxCell id="WtmbnqVcyweyvXS57DGl-92" value="- internalOrder: UUID" style="text;strokeColor=none;fillColor=none;align=left;verticalAlign=top;spacingLeft=4;spacingRight=4;overflow=hidden;rotatable=0;points=[[0,0.5],[1,0.5]];portConstraint=eastwest;container=0;fontStyle=0" parent="WtmbnqVcyweyvXS57DGl-77" vertex="1">
          <mxGeometry y="237" width="180" height="26" as="geometry" />
        </mxCell>
        <mxCell id="WtmbnqVcyweyvXS57DGl-94" value="- internalOrderSummary: UUID" style="text;strokeColor=none;fillColor=none;align=left;verticalAlign=top;spacingLeft=4;spacingRight=4;overflow=hidden;rotatable=0;points=[[0,0.5],[1,0.5]];portConstraint=eastwest;container=0;fontStyle=0" parent="WtmbnqVcyweyvXS57DGl-77" vertex="1">
          <mxGeometry y="263" width="180" height="26" as="geometry" />
        </mxCell>
        <mxCell id="WtmbnqVcyweyvXS57DGl-96" value="- serviceType: UUID" style="text;strokeColor=none;fillColor=none;align=left;verticalAlign=top;spacingLeft=4;spacingRight=4;overflow=hidden;rotatable=0;points=[[0,0.5],[1,0.5]];portConstraint=eastwest;container=0;fontStyle=0" parent="WtmbnqVcyweyvXS57DGl-77" vertex="1">
          <mxGeometry y="289" width="180" height="26" as="geometry" />
        </mxCell>
        <mxCell id="WtmbnqVcyweyvXS57DGl-98" value="- serviceName: String" style="text;strokeColor=none;fillColor=none;align=left;verticalAlign=top;spacingLeft=4;spacingRight=4;overflow=hidden;rotatable=0;points=[[0,0.5],[1,0.5]];portConstraint=eastwest;container=0;fontStyle=0" parent="WtmbnqVcyweyvXS57DGl-77" vertex="1">
          <mxGeometry y="315" width="180" height="26" as="geometry" />
        </mxCell>
        <mxCell id="WtmbnqVcyweyvXS57DGl-100" value="- budgetLine: UUID" style="text;strokeColor=none;fillColor=none;align=left;verticalAlign=top;spacingLeft=4;spacingRight=4;overflow=hidden;rotatable=0;points=[[0,0.5],[1,0.5]];portConstraint=eastwest;container=0;fontStyle=0" parent="WtmbnqVcyweyvXS57DGl-77" vertex="1">
          <mxGeometry y="341" width="180" height="26" as="geometry" />
        </mxCell>
        <mxCell id="WtmbnqVcyweyvXS57DGl-102" value="- unitPrice: Float" style="text;strokeColor=none;fillColor=none;align=left;verticalAlign=top;spacingLeft=4;spacingRight=4;overflow=hidden;rotatable=0;points=[[0,0.5],[1,0.5]];portConstraint=eastwest;container=0;fontStyle=0" parent="WtmbnqVcyweyvXS57DGl-77" vertex="1">
          <mxGeometry y="367" width="180" height="26" as="geometry" />
        </mxCell>
        <mxCell id="WtmbnqVcyweyvXS57DGl-103" value="- isChange: Boolean" style="text;strokeColor=none;fillColor=none;align=left;verticalAlign=top;spacingLeft=4;spacingRight=4;overflow=hidden;rotatable=0;points=[[0,0.5],[1,0.5]];portConstraint=eastwest;container=0;fontStyle=0" parent="WtmbnqVcyweyvXS57DGl-77" vertex="1">
          <mxGeometry y="393" width="180" height="26" as="geometry" />
        </mxCell>
        <mxCell id="WtmbnqVcyweyvXS57DGl-110" style="edgeStyle=orthogonalEdgeStyle;rounded=0;orthogonalLoop=1;jettySize=auto;html=1;dashed=1;startArrow=classic;startFill=1;endArrow=none;endFill=0;startSize=5;endSize=5;" parent="1" source="WtmbnqVcyweyvXS57DGl-105" target="WtmbnqVcyweyvXS57DGl-77" edge="1">
          <mxGeometry relative="1" as="geometry">
            <Array as="points">
              <mxPoint x="337" y="1246" />
              <mxPoint x="337" y="1246" />
            </Array>
          </mxGeometry>
        </mxCell>
        <mxCell id="WtmbnqVcyweyvXS57DGl-105" value="&lt;b&gt;&amp;lt;&amp;lt;enum&amp;gt;&amp;gt;&lt;/b&gt;&lt;br&gt;&lt;div style=&quot;text-align: left&quot;&gt;&lt;b&gt;PhaseType&lt;/b&gt;&lt;br&gt;&lt;/div&gt;" style="swimlane;fontStyle=0;align=center;verticalAlign=middle;childLayout=stackLayout;horizontal=1;startSize=29;horizontalStack=0;resizeParent=1;resizeParentMax=0;resizeLast=0;collapsible=0;marginBottom=0;html=1;fontSize=12;labelPosition=center;verticalLabelPosition=middle;container=0;swimlaneLine=1;rounded=0;sketch=0;glass=0;" parent="1" vertex="1">
          <mxGeometry x="259" y="1260" width="151" height="133" as="geometry" />
        </mxCell>
        <mxCell id="WtmbnqVcyweyvXS57DGl-107" value="SCOPING" style="text;strokeColor=none;fillColor=none;align=left;verticalAlign=top;spacingLeft=4;spacingRight=4;overflow=hidden;rotatable=0;points=[[0,0.5],[1,0.5]];portConstraint=eastwest;container=0;fontStyle=0" parent="WtmbnqVcyweyvXS57DGl-105" vertex="1">
          <mxGeometry y="29" width="151" height="26" as="geometry" />
        </mxCell>
        <mxCell id="WtmbnqVcyweyvXS57DGl-106" value="DEVELOPMENT" style="text;strokeColor=none;fillColor=none;align=left;verticalAlign=top;spacingLeft=4;spacingRight=4;overflow=hidden;rotatable=0;points=[[0,0.5],[1,0.5]];portConstraint=eastwest;container=0;fontStyle=0" parent="WtmbnqVcyweyvXS57DGl-105" vertex="1">
          <mxGeometry y="55" width="151" height="26" as="geometry" />
        </mxCell>
        <mxCell id="WtmbnqVcyweyvXS57DGl-108" value="DEPLOY" style="text;strokeColor=none;fillColor=none;align=left;verticalAlign=top;spacingLeft=4;spacingRight=4;overflow=hidden;rotatable=0;points=[[0,0.5],[1,0.5]];portConstraint=eastwest;container=0;fontStyle=0" parent="WtmbnqVcyweyvXS57DGl-105" vertex="1">
          <mxGeometry y="81" width="151" height="26" as="geometry" />
        </mxCell>
        <mxCell id="WtmbnqVcyweyvXS57DGl-109" value="WARRANTY" style="text;strokeColor=none;fillColor=none;align=left;verticalAlign=top;spacingLeft=4;spacingRight=4;overflow=hidden;rotatable=0;points=[[0,0.5],[1,0.5]];portConstraint=eastwest;container=0;fontStyle=0" parent="WtmbnqVcyweyvXS57DGl-105" vertex="1">
          <mxGeometry y="107" width="151" height="26" as="geometry" />
        </mxCell>
        <mxCell id="WtmbnqVcyweyvXS57DGl-128" style="edgeStyle=orthogonalEdgeStyle;rounded=0;orthogonalLoop=1;jettySize=auto;html=1;dashed=1;startArrow=none;startFill=0;endArrow=block;endFill=0;startSize=5;endSize=5;" parent="1" target="WtmbnqVcyweyvXS57DGl-1" edge="1">
          <mxGeometry relative="1" as="geometry">
            <mxPoint x="646.2564039963943" y="417.8460536858975" as="targetPoint" />
            <Array as="points">
              <mxPoint x="702" y="746" />
              <mxPoint x="898" y="746" />
            </Array>
            <mxPoint x="701.5454545454545" y="798" as="sourcePoint" />
          </mxGeometry>
        </mxCell>
        <mxCell id="WtmbnqVcyweyvXS57DGl-112" value="&lt;span style=&quot;text-align: left&quot;&gt;&lt;b&gt;HolidayEntry&lt;/b&gt;&lt;/span&gt;" style="swimlane;fontStyle=0;align=center;verticalAlign=middle;childLayout=stackLayout;horizontal=1;startSize=29;horizontalStack=0;resizeParent=1;resizeParentMax=0;resizeLast=0;collapsible=0;marginBottom=0;html=1;fontSize=12;labelPosition=center;verticalLabelPosition=middle;container=0;swimlaneLine=1;rounded=0;shadow=0;glass=0;sketch=0;perimeterSpacing=0;" parent="1" vertex="1">
          <mxGeometry x="476" y="798" width="137" height="55" as="geometry" />
        </mxCell>
        <mxCell id="WtmbnqVcyweyvXS57DGl-113" value="-holidayId: UUID" style="text;strokeColor=none;fillColor=none;align=left;verticalAlign=top;spacingLeft=4;spacingRight=4;overflow=hidden;rotatable=0;points=[[0,0.5],[1,0.5]];portConstraint=eastwest;container=0;fontStyle=0" parent="WtmbnqVcyweyvXS57DGl-112" vertex="1">
          <mxGeometry y="29" width="137" height="26" as="geometry" />
        </mxCell>
        <mxCell id="WtmbnqVcyweyvXS57DGl-118" value="&lt;div style=&quot;text-align: left&quot;&gt;&lt;span&gt;&lt;b&gt;OffEntry&lt;/b&gt;&lt;/span&gt;&lt;/div&gt;" style="swimlane;fontStyle=0;align=center;verticalAlign=middle;childLayout=stackLayout;horizontal=1;startSize=29;horizontalStack=0;resizeParent=1;resizeParentMax=0;resizeLast=0;collapsible=0;marginBottom=0;html=1;fontSize=12;labelPosition=center;verticalLabelPosition=middle;container=0;swimlaneLine=1;rounded=0;shadow=0;glass=0;sketch=0;perimeterSpacing=0;" parent="1" vertex="1">
          <mxGeometry x="662" y="800" width="137" height="185" as="geometry" />
        </mxCell>
        <mxCell id="WtmbnqVcyweyvXS57DGl-119" value="-typeId: UUID" style="text;strokeColor=none;fillColor=none;align=left;verticalAlign=top;spacingLeft=4;spacingRight=4;overflow=hidden;rotatable=0;points=[[0,0.5],[1,0.5]];portConstraint=eastwest;container=0;fontStyle=0" parent="WtmbnqVcyweyvXS57DGl-118" vertex="1">
          <mxGeometry y="29" width="137" height="26" as="geometry" />
        </mxCell>
        <mxCell id="WtmbnqVcyweyvXS57DGl-121" value="-type: String" style="text;strokeColor=none;fillColor=none;align=left;verticalAlign=top;spacingLeft=4;spacingRight=4;overflow=hidden;rotatable=0;points=[[0,0.5],[1,0.5]];portConstraint=eastwest;container=0;fontStyle=0" parent="WtmbnqVcyweyvXS57DGl-118" vertex="1">
          <mxGeometry y="55" width="137" height="26" as="geometry" />
        </mxCell>
        <mxCell id="WtmbnqVcyweyvXS57DGl-122" value="-reasonId: UUID" style="text;strokeColor=none;fillColor=none;align=left;verticalAlign=top;spacingLeft=4;spacingRight=4;overflow=hidden;rotatable=0;points=[[0,0.5],[1,0.5]];portConstraint=eastwest;container=0;fontStyle=0" parent="WtmbnqVcyweyvXS57DGl-118" vertex="1">
          <mxGeometry y="81" width="137" height="26" as="geometry" />
        </mxCell>
        <mxCell id="WtmbnqVcyweyvXS57DGl-125" value="-reason: String" style="text;strokeColor=none;fillColor=none;align=left;verticalAlign=top;spacingLeft=4;spacingRight=4;overflow=hidden;rotatable=0;points=[[0,0.5],[1,0.5]];portConstraint=eastwest;container=0;fontStyle=0" parent="WtmbnqVcyweyvXS57DGl-118" vertex="1">
          <mxGeometry y="107" width="137" height="26" as="geometry" />
        </mxCell>
        <mxCell id="WtmbnqVcyweyvXS57DGl-123" value="-categoryId: UUID" style="text;strokeColor=none;fillColor=none;align=left;verticalAlign=top;spacingLeft=4;spacingRight=4;overflow=hidden;rotatable=0;points=[[0,0.5],[1,0.5]];portConstraint=eastwest;container=0;fontStyle=0" parent="WtmbnqVcyweyvXS57DGl-118" vertex="1">
          <mxGeometry y="133" width="137" height="26" as="geometry" />
        </mxCell>
        <mxCell id="WtmbnqVcyweyvXS57DGl-124" value="-category: String" style="text;strokeColor=none;fillColor=none;align=left;verticalAlign=top;spacingLeft=4;spacingRight=4;overflow=hidden;rotatable=0;points=[[0,0.5],[1,0.5]];portConstraint=eastwest;container=0;fontStyle=0" parent="WtmbnqVcyweyvXS57DGl-118" vertex="1">
          <mxGeometry y="159" width="137" height="26" as="geometry" />
        </mxCell>
        <mxCell id="7B0drBum6s7SFeNLV9wR-17" style="edgeStyle=orthogonalEdgeStyle;rounded=0;orthogonalLoop=1;jettySize=auto;html=1;dashed=1;endSize=5;startSize=5;endArrow=block;endFill=0;" edge="1" parent="1" source="WtmbnqVcyweyvXS57DGl-130" target="WtmbnqVcyweyvXS57DGl-1">
          <mxGeometry relative="1" as="geometry">
            <Array as="points">
              <mxPoint x="898" y="781" />
              <mxPoint x="898" y="781" />
            </Array>
          </mxGeometry>
        </mxCell>
        <mxCell id="WtmbnqVcyweyvXS57DGl-130" value="&lt;div style=&quot;text-align: left&quot;&gt;&lt;b&gt;OtherActivityEntry&lt;/b&gt;&lt;br&gt;&lt;/div&gt;" style="swimlane;fontStyle=0;align=center;verticalAlign=middle;childLayout=stackLayout;horizontal=1;startSize=29;horizontalStack=0;resizeParent=1;resizeParentMax=0;resizeLast=0;collapsible=0;marginBottom=0;html=1;fontSize=12;labelPosition=center;verticalLabelPosition=middle;container=0;swimlaneLine=1;rounded=0;shadow=0;glass=0;sketch=0;perimeterSpacing=0;" parent="1" vertex="1">
          <mxGeometry x="846" y="800" width="137" height="81" as="geometry" />
        </mxCell>
        <mxCell id="WtmbnqVcyweyvXS57DGl-135" value="-categoryId: UUID" style="text;strokeColor=none;fillColor=none;align=left;verticalAlign=top;spacingLeft=4;spacingRight=4;overflow=hidden;rotatable=0;points=[[0,0.5],[1,0.5]];portConstraint=eastwest;container=0;fontStyle=0" parent="WtmbnqVcyweyvXS57DGl-130" vertex="1">
          <mxGeometry y="29" width="137" height="26" as="geometry" />
        </mxCell>
        <mxCell id="WtmbnqVcyweyvXS57DGl-136" value="-category: String" style="text;strokeColor=none;fillColor=none;align=left;verticalAlign=top;spacingLeft=4;spacingRight=4;overflow=hidden;rotatable=0;points=[[0,0.5],[1,0.5]];portConstraint=eastwest;container=0;fontStyle=0" parent="WtmbnqVcyweyvXS57DGl-130" vertex="1">
          <mxGeometry y="55" width="137" height="26" as="geometry" />
        </mxCell>
        <mxCell id="7B0drBum6s7SFeNLV9wR-18" style="edgeStyle=orthogonalEdgeStyle;rounded=0;orthogonalLoop=1;jettySize=auto;html=1;dashed=1;endArrow=block;endFill=0;startSize=5;endSize=5;" edge="1" parent="1" source="7B0drBum6s7SFeNLV9wR-1" target="WtmbnqVcyweyvXS57DGl-1">
          <mxGeometry relative="1" as="geometry">
            <Array as="points">
              <mxPoint x="1119" y="746" />
              <mxPoint x="898" y="746" />
            </Array>
          </mxGeometry>
        </mxCell>
        <mxCell id="7B0drBum6s7SFeNLV9wR-1" value="&lt;b&gt;TimeAndMaterialEntry&lt;/b&gt;" style="swimlane;fontStyle=0;align=center;verticalAlign=middle;childLayout=stackLayout;horizontal=1;startSize=29;horizontalStack=0;resizeParent=1;resizeParentMax=0;resizeLast=0;collapsible=0;marginBottom=0;html=1;fontSize=12;labelPosition=center;verticalLabelPosition=middle;container=0;swimlaneLine=1;rounded=0;shadow=0;glass=0;sketch=0;perimeterSpacing=0;" vertex="1" parent="1">
          <mxGeometry x="1029" y="800" width="180" height="393" as="geometry" />
        </mxCell>
        <mxCell id="7B0drBum6s7SFeNLV9wR-2" value="- iteration: UUID" style="text;strokeColor=none;fillColor=none;align=left;verticalAlign=top;spacingLeft=4;spacingRight=4;overflow=hidden;rotatable=0;points=[[0,0.5],[1,0.5]];portConstraint=eastwest;container=0;fontStyle=0" vertex="1" parent="7B0drBum6s7SFeNLV9wR-1">
          <mxGeometry y="29" width="180" height="26" as="geometry" />
        </mxCell>
        <mxCell id="7B0drBum6s7SFeNLV9wR-3" value="- iterationSummary: String " style="text;strokeColor=none;fillColor=none;align=left;verticalAlign=top;spacingLeft=4;spacingRight=4;overflow=hidden;rotatable=0;points=[[0,0.5],[1,0.5]];portConstraint=eastwest;container=0;fontStyle=0" vertex="1" parent="7B0drBum6s7SFeNLV9wR-1">
          <mxGeometry y="55" width="180" height="26" as="geometry" />
        </mxCell>
        <mxCell id="7B0drBum6s7SFeNLV9wR-4" value="- iterationCode: String" style="text;strokeColor=none;fillColor=none;align=left;verticalAlign=top;spacingLeft=4;spacingRight=4;overflow=hidden;rotatable=0;points=[[0,0.5],[1,0.5]];portConstraint=eastwest;container=0;fontStyle=0" vertex="1" parent="7B0drBum6s7SFeNLV9wR-1">
          <mxGeometry y="81" width="180" height="26" as="geometry" />
        </mxCell>
        <mxCell id="7B0drBum6s7SFeNLV9wR-6" value="- taskSummary: String" style="text;strokeColor=none;fillColor=none;align=left;verticalAlign=top;spacingLeft=4;spacingRight=4;overflow=hidden;rotatable=0;points=[[0,0.5],[1,0.5]];portConstraint=eastwest;container=0;fontStyle=0" vertex="1" parent="7B0drBum6s7SFeNLV9wR-1">
          <mxGeometry y="107" width="180" height="26" as="geometry" />
        </mxCell>
        <mxCell id="7B0drBum6s7SFeNLV9wR-7" value="- taskCode: String" style="text;strokeColor=none;fillColor=none;align=left;verticalAlign=top;spacingLeft=4;spacingRight=4;overflow=hidden;rotatable=0;points=[[0,0.5],[1,0.5]];portConstraint=eastwest;container=0;fontStyle=0" vertex="1" parent="7B0drBum6s7SFeNLV9wR-1">
          <mxGeometry y="133" width="180" height="26" as="geometry" />
        </mxCell>
        <mxCell id="7B0drBum6s7SFeNLV9wR-8" value="- clientOrder: UUID" style="text;strokeColor=none;fillColor=none;align=left;verticalAlign=top;spacingLeft=4;spacingRight=4;overflow=hidden;rotatable=0;points=[[0,0.5],[1,0.5]];portConstraint=eastwest;container=0;fontStyle=0" vertex="1" parent="7B0drBum6s7SFeNLV9wR-1">
          <mxGeometry y="159" width="180" height="26" as="geometry" />
        </mxCell>
        <mxCell id="7B0drBum6s7SFeNLV9wR-9" value="- clientOrderSummary: String" style="text;strokeColor=none;fillColor=none;align=left;verticalAlign=top;spacingLeft=4;spacingRight=4;overflow=hidden;rotatable=0;points=[[0,0.5],[1,0.5]];portConstraint=eastwest;container=0;fontStyle=0" vertex="1" parent="7B0drBum6s7SFeNLV9wR-1">
          <mxGeometry y="185" width="180" height="26" as="geometry" />
        </mxCell>
        <mxCell id="7B0drBum6s7SFeNLV9wR-10" value="- internalOrder: UUID" style="text;strokeColor=none;fillColor=none;align=left;verticalAlign=top;spacingLeft=4;spacingRight=4;overflow=hidden;rotatable=0;points=[[0,0.5],[1,0.5]];portConstraint=eastwest;container=0;fontStyle=0" vertex="1" parent="7B0drBum6s7SFeNLV9wR-1">
          <mxGeometry y="211" width="180" height="26" as="geometry" />
        </mxCell>
        <mxCell id="7B0drBum6s7SFeNLV9wR-11" value="- internalOrderSummary: UUID" style="text;strokeColor=none;fillColor=none;align=left;verticalAlign=top;spacingLeft=4;spacingRight=4;overflow=hidden;rotatable=0;points=[[0,0.5],[1,0.5]];portConstraint=eastwest;container=0;fontStyle=0" vertex="1" parent="7B0drBum6s7SFeNLV9wR-1">
          <mxGeometry y="237" width="180" height="26" as="geometry" />
        </mxCell>
        <mxCell id="7B0drBum6s7SFeNLV9wR-12" value="- serviceType: UUID" style="text;strokeColor=none;fillColor=none;align=left;verticalAlign=top;spacingLeft=4;spacingRight=4;overflow=hidden;rotatable=0;points=[[0,0.5],[1,0.5]];portConstraint=eastwest;container=0;fontStyle=0" vertex="1" parent="7B0drBum6s7SFeNLV9wR-1">
          <mxGeometry y="263" width="180" height="26" as="geometry" />
        </mxCell>
        <mxCell id="7B0drBum6s7SFeNLV9wR-13" value="- serviceName: String" style="text;strokeColor=none;fillColor=none;align=left;verticalAlign=top;spacingLeft=4;spacingRight=4;overflow=hidden;rotatable=0;points=[[0,0.5],[1,0.5]];portConstraint=eastwest;container=0;fontStyle=0" vertex="1" parent="7B0drBum6s7SFeNLV9wR-1">
          <mxGeometry y="289" width="180" height="26" as="geometry" />
        </mxCell>
        <mxCell id="7B0drBum6s7SFeNLV9wR-14" value="- budgetLine: UUID" style="text;strokeColor=none;fillColor=none;align=left;verticalAlign=top;spacingLeft=4;spacingRight=4;overflow=hidden;rotatable=0;points=[[0,0.5],[1,0.5]];portConstraint=eastwest;container=0;fontStyle=0" vertex="1" parent="7B0drBum6s7SFeNLV9wR-1">
          <mxGeometry y="315" width="180" height="26" as="geometry" />
        </mxCell>
        <mxCell id="7B0drBum6s7SFeNLV9wR-15" value="- unitPrice: Float" style="text;strokeColor=none;fillColor=none;align=left;verticalAlign=top;spacingLeft=4;spacingRight=4;overflow=hidden;rotatable=0;points=[[0,0.5],[1,0.5]];portConstraint=eastwest;container=0;fontStyle=0" vertex="1" parent="7B0drBum6s7SFeNLV9wR-1">
          <mxGeometry y="341" width="180" height="26" as="geometry" />
        </mxCell>
        <mxCell id="7B0drBum6s7SFeNLV9wR-16" value="- isChange: Boolean" style="text;strokeColor=none;fillColor=none;align=left;verticalAlign=top;spacingLeft=4;spacingRight=4;overflow=hidden;rotatable=0;points=[[0,0.5],[1,0.5]];portConstraint=eastwest;container=0;fontStyle=0" vertex="1" parent="7B0drBum6s7SFeNLV9wR-1">
          <mxGeometry y="367" width="180" height="26" as="geometry" />
        </mxCell>
        <mxCell id="7B0drBum6s7SFeNLV9wR-33" style="edgeStyle=orthogonalEdgeStyle;rounded=0;orthogonalLoop=1;jettySize=auto;html=1;dashed=1;endArrow=block;endFill=0;startSize=5;endSize=5;" edge="1" parent="1" source="7B0drBum6s7SFeNLV9wR-19" target="WtmbnqVcyweyvXS57DGl-1">
          <mxGeometry relative="1" as="geometry">
            <Array as="points">
              <mxPoint x="1334" y="746" />
              <mxPoint x="898" y="746" />
            </Array>
          </mxGeometry>
        </mxCell>
        <mxCell id="7B0drBum6s7SFeNLV9wR-19" value="&lt;div style=&quot;text-align: left&quot;&gt;&lt;b&gt;PresalesEntry&lt;/b&gt;&lt;br&gt;&lt;/div&gt;" style="swimlane;fontStyle=0;align=center;verticalAlign=middle;childLayout=stackLayout;horizontal=1;startSize=29;horizontalStack=0;resizeParent=1;resizeParentMax=0;resizeLast=0;collapsible=0;marginBottom=0;html=1;fontSize=12;labelPosition=center;verticalLabelPosition=middle;container=0;swimlaneLine=1;rounded=0;shadow=0;glass=0;sketch=0;perimeterSpacing=0;" vertex="1" parent="1">
          <mxGeometry x="1264" y="800" width="139" height="341" as="geometry" />
        </mxCell>
        <mxCell id="7B0drBum6s7SFeNLV9wR-20" value="- taskSummary: String" style="text;strokeColor=none;fillColor=none;align=left;verticalAlign=top;spacingLeft=4;spacingRight=4;overflow=hidden;rotatable=0;points=[[0,0.5],[1,0.5]];portConstraint=eastwest;container=0;fontStyle=0" vertex="1" parent="7B0drBum6s7SFeNLV9wR-19">
          <mxGeometry y="29" width="139" height="26" as="geometry" />
        </mxCell>
        <mxCell id="7B0drBum6s7SFeNLV9wR-21" value="- taskCode: String" style="text;strokeColor=none;fillColor=none;align=left;verticalAlign=top;spacingLeft=4;spacingRight=4;overflow=hidden;rotatable=0;points=[[0,0.5],[1,0.5]];portConstraint=eastwest;container=0;fontStyle=0" vertex="1" parent="7B0drBum6s7SFeNLV9wR-19">
          <mxGeometry y="55" width="139" height="26" as="geometry" />
        </mxCell>
        <mxCell id="7B0drBum6s7SFeNLV9wR-22" value="-lead: UUID" style="text;strokeColor=none;fillColor=none;align=left;verticalAlign=top;spacingLeft=4;spacingRight=4;overflow=hidden;rotatable=0;points=[[0,0.5],[1,0.5]];portConstraint=eastwest;container=0;fontStyle=0" vertex="1" parent="7B0drBum6s7SFeNLV9wR-19">
          <mxGeometry y="81" width="139" height="26" as="geometry" />
        </mxCell>
        <mxCell id="7B0drBum6s7SFeNLV9wR-23" value="-leadName: String" style="text;strokeColor=none;fillColor=none;align=left;verticalAlign=top;spacingLeft=4;spacingRight=4;overflow=hidden;rotatable=0;points=[[0,0.5],[1,0.5]];portConstraint=eastwest;container=0;fontStyle=0" vertex="1" parent="7B0drBum6s7SFeNLV9wR-19">
          <mxGeometry y="107" width="139" height="26" as="geometry" />
        </mxCell>
        <mxCell id="7B0drBum6s7SFeNLV9wR-24" value="-deal: UUID" style="text;strokeColor=none;fillColor=none;align=left;verticalAlign=top;spacingLeft=4;spacingRight=4;overflow=hidden;rotatable=0;points=[[0,0.5],[1,0.5]];portConstraint=eastwest;container=0;fontStyle=0" vertex="1" parent="7B0drBum6s7SFeNLV9wR-19">
          <mxGeometry y="133" width="139" height="26" as="geometry" />
        </mxCell>
        <mxCell id="7B0drBum6s7SFeNLV9wR-25" value="-dealStatus: String" style="text;strokeColor=none;fillColor=none;align=left;verticalAlign=top;spacingLeft=4;spacingRight=4;overflow=hidden;rotatable=0;points=[[0,0.5],[1,0.5]];portConstraint=eastwest;container=0;fontStyle=0" vertex="1" parent="7B0drBum6s7SFeNLV9wR-19">
          <mxGeometry y="159" width="139" height="26" as="geometry" />
        </mxCell>
        <mxCell id="7B0drBum6s7SFeNLV9wR-27" value="- isClient: Boolean" style="text;strokeColor=none;fillColor=none;align=left;verticalAlign=top;spacingLeft=4;spacingRight=4;overflow=hidden;rotatable=0;points=[[0,0.5],[1,0.5]];portConstraint=eastwest;container=0;fontStyle=0" vertex="1" parent="7B0drBum6s7SFeNLV9wR-19">
          <mxGeometry y="185" width="139" height="26" as="geometry" />
        </mxCell>
        <mxCell id="7B0drBum6s7SFeNLV9wR-28" value="- dealSummary: String" style="text;strokeColor=none;fillColor=none;align=left;verticalAlign=top;spacingLeft=4;spacingRight=4;overflow=hidden;rotatable=0;points=[[0,0.5],[1,0.5]];portConstraint=eastwest;container=0;fontStyle=0" vertex="1" parent="7B0drBum6s7SFeNLV9wR-19">
          <mxGeometry y="211" width="139" height="26" as="geometry" />
        </mxCell>
        <mxCell id="7B0drBum6s7SFeNLV9wR-29" value="- serviceType: UUID" style="text;strokeColor=none;fillColor=none;align=left;verticalAlign=top;spacingLeft=4;spacingRight=4;overflow=hidden;rotatable=0;points=[[0,0.5],[1,0.5]];portConstraint=eastwest;container=0;fontStyle=0" vertex="1" parent="7B0drBum6s7SFeNLV9wR-19">
          <mxGeometry y="237" width="139" height="26" as="geometry" />
        </mxCell>
        <mxCell id="7B0drBum6s7SFeNLV9wR-30" value="- serviceName: String" style="text;strokeColor=none;fillColor=none;align=left;verticalAlign=top;spacingLeft=4;spacingRight=4;overflow=hidden;rotatable=0;points=[[0,0.5],[1,0.5]];portConstraint=eastwest;container=0;fontStyle=0" vertex="1" parent="7B0drBum6s7SFeNLV9wR-19">
          <mxGeometry y="263" width="139" height="26" as="geometry" />
        </mxCell>
        <mxCell id="7B0drBum6s7SFeNLV9wR-31" value="-requestor: UUID" style="text;strokeColor=none;fillColor=none;align=left;verticalAlign=top;spacingLeft=4;spacingRight=4;overflow=hidden;rotatable=0;points=[[0,0.5],[1,0.5]];portConstraint=eastwest;container=0;fontStyle=0" vertex="1" parent="7B0drBum6s7SFeNLV9wR-19">
          <mxGeometry y="289" width="139" height="26" as="geometry" />
        </mxCell>
        <mxCell id="7B0drBum6s7SFeNLV9wR-32" value="- requestorName: String" style="text;strokeColor=none;fillColor=none;align=left;verticalAlign=top;spacingLeft=4;spacingRight=4;overflow=hidden;rotatable=0;points=[[0,0.5],[1,0.5]];portConstraint=eastwest;container=0;fontStyle=0" vertex="1" parent="7B0drBum6s7SFeNLV9wR-19">
          <mxGeometry y="315" width="139" height="26" as="geometry" />
        </mxCell>
        <mxCell id="7B0drBum6s7SFeNLV9wR-70" style="edgeStyle=orthogonalEdgeStyle;rounded=0;orthogonalLoop=1;jettySize=auto;html=1;dashed=1;endArrow=block;endFill=0;startSize=5;endSize=5;" edge="1" parent="1" source="7B0drBum6s7SFeNLV9wR-34" target="WtmbnqVcyweyvXS57DGl-1">
          <mxGeometry relative="1" as="geometry">
            <Array as="points">
              <mxPoint x="1546" y="746" />
              <mxPoint x="898" y="746" />
            </Array>
          </mxGeometry>
        </mxCell>
        <mxCell id="7B0drBum6s7SFeNLV9wR-34" value="&lt;b&gt;LicenseEntry&lt;/b&gt;" style="swimlane;fontStyle=0;align=center;verticalAlign=middle;childLayout=stackLayout;horizontal=1;startSize=29;horizontalStack=0;resizeParent=1;resizeParentMax=0;resizeLast=0;collapsible=0;marginBottom=0;html=1;fontSize=12;labelPosition=center;verticalLabelPosition=middle;container=0;swimlaneLine=1;rounded=0;shadow=0;glass=0;sketch=0;perimeterSpacing=0;" vertex="1" parent="1">
          <mxGeometry x="1456" y="800" width="180" height="445" as="geometry" />
        </mxCell>
        <mxCell id="7B0drBum6s7SFeNLV9wR-35" value="- iteration: UUID" style="text;strokeColor=none;fillColor=none;align=left;verticalAlign=top;spacingLeft=4;spacingRight=4;overflow=hidden;rotatable=0;points=[[0,0.5],[1,0.5]];portConstraint=eastwest;container=0;fontStyle=0" vertex="1" parent="7B0drBum6s7SFeNLV9wR-34">
          <mxGeometry y="29" width="180" height="26" as="geometry" />
        </mxCell>
        <mxCell id="7B0drBum6s7SFeNLV9wR-36" value="- iterationSummary: String " style="text;strokeColor=none;fillColor=none;align=left;verticalAlign=top;spacingLeft=4;spacingRight=4;overflow=hidden;rotatable=0;points=[[0,0.5],[1,0.5]];portConstraint=eastwest;container=0;fontStyle=0" vertex="1" parent="7B0drBum6s7SFeNLV9wR-34">
          <mxGeometry y="55" width="180" height="26" as="geometry" />
        </mxCell>
        <mxCell id="7B0drBum6s7SFeNLV9wR-37" value="- iterationCode: String" style="text;strokeColor=none;fillColor=none;align=left;verticalAlign=top;spacingLeft=4;spacingRight=4;overflow=hidden;rotatable=0;points=[[0,0.5],[1,0.5]];portConstraint=eastwest;container=0;fontStyle=0" vertex="1" parent="7B0drBum6s7SFeNLV9wR-34">
          <mxGeometry y="81" width="180" height="26" as="geometry" />
        </mxCell>
        <mxCell id="7B0drBum6s7SFeNLV9wR-39" value="- taskSummary: String" style="text;strokeColor=none;fillColor=none;align=left;verticalAlign=top;spacingLeft=4;spacingRight=4;overflow=hidden;rotatable=0;points=[[0,0.5],[1,0.5]];portConstraint=eastwest;container=0;fontStyle=0" vertex="1" parent="7B0drBum6s7SFeNLV9wR-34">
          <mxGeometry y="107" width="180" height="26" as="geometry" />
        </mxCell>
        <mxCell id="7B0drBum6s7SFeNLV9wR-40" value="- taskCode: String" style="text;strokeColor=none;fillColor=none;align=left;verticalAlign=top;spacingLeft=4;spacingRight=4;overflow=hidden;rotatable=0;points=[[0,0.5],[1,0.5]];portConstraint=eastwest;container=0;fontStyle=0" vertex="1" parent="7B0drBum6s7SFeNLV9wR-34">
          <mxGeometry y="133" width="180" height="26" as="geometry" />
        </mxCell>
        <mxCell id="7B0drBum6s7SFeNLV9wR-41" value="- clientOrder: UUID" style="text;strokeColor=none;fillColor=none;align=left;verticalAlign=top;spacingLeft=4;spacingRight=4;overflow=hidden;rotatable=0;points=[[0,0.5],[1,0.5]];portConstraint=eastwest;container=0;fontStyle=0" vertex="1" parent="7B0drBum6s7SFeNLV9wR-34">
          <mxGeometry y="159" width="180" height="26" as="geometry" />
        </mxCell>
        <mxCell id="7B0drBum6s7SFeNLV9wR-42" value="- clientOrderSummary: String" style="text;strokeColor=none;fillColor=none;align=left;verticalAlign=top;spacingLeft=4;spacingRight=4;overflow=hidden;rotatable=0;points=[[0,0.5],[1,0.5]];portConstraint=eastwest;container=0;fontStyle=0" vertex="1" parent="7B0drBum6s7SFeNLV9wR-34">
          <mxGeometry y="185" width="180" height="26" as="geometry" />
        </mxCell>
        <mxCell id="7B0drBum6s7SFeNLV9wR-43" value="- internalOrder: UUID" style="text;strokeColor=none;fillColor=none;align=left;verticalAlign=top;spacingLeft=4;spacingRight=4;overflow=hidden;rotatable=0;points=[[0,0.5],[1,0.5]];portConstraint=eastwest;container=0;fontStyle=0" vertex="1" parent="7B0drBum6s7SFeNLV9wR-34">
          <mxGeometry y="211" width="180" height="26" as="geometry" />
        </mxCell>
        <mxCell id="7B0drBum6s7SFeNLV9wR-44" value="- internalOrderSummary: UUID" style="text;strokeColor=none;fillColor=none;align=left;verticalAlign=top;spacingLeft=4;spacingRight=4;overflow=hidden;rotatable=0;points=[[0,0.5],[1,0.5]];portConstraint=eastwest;container=0;fontStyle=0" vertex="1" parent="7B0drBum6s7SFeNLV9wR-34">
          <mxGeometry y="237" width="180" height="26" as="geometry" />
        </mxCell>
        <mxCell id="7B0drBum6s7SFeNLV9wR-45" value="- serviceType: UUID" style="text;strokeColor=none;fillColor=none;align=left;verticalAlign=top;spacingLeft=4;spacingRight=4;overflow=hidden;rotatable=0;points=[[0,0.5],[1,0.5]];portConstraint=eastwest;container=0;fontStyle=0" vertex="1" parent="7B0drBum6s7SFeNLV9wR-34">
          <mxGeometry y="263" width="180" height="26" as="geometry" />
        </mxCell>
        <mxCell id="7B0drBum6s7SFeNLV9wR-46" value="- serviceName: String" style="text;strokeColor=none;fillColor=none;align=left;verticalAlign=top;spacingLeft=4;spacingRight=4;overflow=hidden;rotatable=0;points=[[0,0.5],[1,0.5]];portConstraint=eastwest;container=0;fontStyle=0" vertex="1" parent="7B0drBum6s7SFeNLV9wR-34">
          <mxGeometry y="289" width="180" height="26" as="geometry" />
        </mxCell>
        <mxCell id="7B0drBum6s7SFeNLV9wR-47" value="- product: UUID" style="text;strokeColor=none;fillColor=none;align=left;verticalAlign=top;spacingLeft=4;spacingRight=4;overflow=hidden;rotatable=0;points=[[0,0.5],[1,0.5]];portConstraint=eastwest;container=0;fontStyle=0" vertex="1" parent="7B0drBum6s7SFeNLV9wR-34">
          <mxGeometry y="315" width="180" height="26" as="geometry" />
        </mxCell>
        <mxCell id="7B0drBum6s7SFeNLV9wR-48" value="- productName: String" style="text;strokeColor=none;fillColor=none;align=left;verticalAlign=top;spacingLeft=4;spacingRight=4;overflow=hidden;rotatable=0;points=[[0,0.5],[1,0.5]];portConstraint=eastwest;container=0;fontStyle=0" vertex="1" parent="7B0drBum6s7SFeNLV9wR-34">
          <mxGeometry y="341" width="180" height="26" as="geometry" />
        </mxCell>
        <mxCell id="7B0drBum6s7SFeNLV9wR-49" value="- license: UUID" style="text;strokeColor=none;fillColor=none;align=left;verticalAlign=top;spacingLeft=4;spacingRight=4;overflow=hidden;rotatable=0;points=[[0,0.5],[1,0.5]];portConstraint=eastwest;container=0;fontStyle=0" vertex="1" parent="7B0drBum6s7SFeNLV9wR-34">
          <mxGeometry y="367" width="180" height="26" as="geometry" />
        </mxCell>
        <mxCell id="7B0drBum6s7SFeNLV9wR-50" value="- licenseName: String" style="text;strokeColor=none;fillColor=none;align=left;verticalAlign=top;spacingLeft=4;spacingRight=4;overflow=hidden;rotatable=0;points=[[0,0.5],[1,0.5]];portConstraint=eastwest;container=0;fontStyle=0" vertex="1" parent="7B0drBum6s7SFeNLV9wR-34">
          <mxGeometry y="393" width="180" height="26" as="geometry" />
        </mxCell>
        <mxCell id="7B0drBum6s7SFeNLV9wR-51" value="- isChange: Boolean" style="text;strokeColor=none;fillColor=none;align=left;verticalAlign=top;spacingLeft=4;spacingRight=4;overflow=hidden;rotatable=0;points=[[0,0.5],[1,0.5]];portConstraint=eastwest;container=0;fontStyle=0" vertex="1" parent="7B0drBum6s7SFeNLV9wR-34">
          <mxGeometry y="419" width="180" height="26" as="geometry" />
        </mxCell>
        <mxCell id="7B0drBum6s7SFeNLV9wR-74" style="edgeStyle=orthogonalEdgeStyle;rounded=0;orthogonalLoop=1;jettySize=auto;html=1;dashed=1;startArrow=none;startFill=0;endArrow=block;endFill=0;startSize=5;endSize=5;" edge="1" parent="1" source="7B0drBum6s7SFeNLV9wR-52" target="WtmbnqVcyweyvXS57DGl-1">
          <mxGeometry relative="1" as="geometry">
            <Array as="points">
              <mxPoint x="1770" y="746" />
              <mxPoint x="898" y="746" />
            </Array>
          </mxGeometry>
        </mxCell>
        <mxCell id="7B0drBum6s7SFeNLV9wR-52" value="&lt;b&gt;SupportProgramEntry&lt;/b&gt;" style="swimlane;fontStyle=0;align=center;verticalAlign=middle;childLayout=stackLayout;horizontal=1;startSize=29;horizontalStack=0;resizeParent=1;resizeParentMax=0;resizeLast=0;collapsible=0;marginBottom=0;html=1;fontSize=12;labelPosition=center;verticalLabelPosition=middle;container=0;swimlaneLine=1;rounded=0;shadow=0;glass=0;sketch=0;perimeterSpacing=0;" vertex="1" parent="1">
          <mxGeometry x="1680" y="800" width="180" height="419" as="geometry" />
        </mxCell>
        <mxCell id="7B0drBum6s7SFeNLV9wR-53" value="- iteration: UUID" style="text;strokeColor=none;fillColor=none;align=left;verticalAlign=top;spacingLeft=4;spacingRight=4;overflow=hidden;rotatable=0;points=[[0,0.5],[1,0.5]];portConstraint=eastwest;container=0;fontStyle=0" vertex="1" parent="7B0drBum6s7SFeNLV9wR-52">
          <mxGeometry y="29" width="180" height="26" as="geometry" />
        </mxCell>
        <mxCell id="7B0drBum6s7SFeNLV9wR-54" value="- iterationSummary: String " style="text;strokeColor=none;fillColor=none;align=left;verticalAlign=top;spacingLeft=4;spacingRight=4;overflow=hidden;rotatable=0;points=[[0,0.5],[1,0.5]];portConstraint=eastwest;container=0;fontStyle=0" vertex="1" parent="7B0drBum6s7SFeNLV9wR-52">
          <mxGeometry y="55" width="180" height="26" as="geometry" />
        </mxCell>
        <mxCell id="7B0drBum6s7SFeNLV9wR-55" value="- iterationCode: String" style="text;strokeColor=none;fillColor=none;align=left;verticalAlign=top;spacingLeft=4;spacingRight=4;overflow=hidden;rotatable=0;points=[[0,0.5],[1,0.5]];portConstraint=eastwest;container=0;fontStyle=0" vertex="1" parent="7B0drBum6s7SFeNLV9wR-52">
          <mxGeometry y="81" width="180" height="26" as="geometry" />
        </mxCell>
        <mxCell id="7B0drBum6s7SFeNLV9wR-56" value="- taskSummary: String" style="text;strokeColor=none;fillColor=none;align=left;verticalAlign=top;spacingLeft=4;spacingRight=4;overflow=hidden;rotatable=0;points=[[0,0.5],[1,0.5]];portConstraint=eastwest;container=0;fontStyle=0" vertex="1" parent="7B0drBum6s7SFeNLV9wR-52">
          <mxGeometry y="107" width="180" height="26" as="geometry" />
        </mxCell>
        <mxCell id="7B0drBum6s7SFeNLV9wR-57" value="- taskCode: String" style="text;strokeColor=none;fillColor=none;align=left;verticalAlign=top;spacingLeft=4;spacingRight=4;overflow=hidden;rotatable=0;points=[[0,0.5],[1,0.5]];portConstraint=eastwest;container=0;fontStyle=0" vertex="1" parent="7B0drBum6s7SFeNLV9wR-52">
          <mxGeometry y="133" width="180" height="26" as="geometry" />
        </mxCell>
        <mxCell id="7B0drBum6s7SFeNLV9wR-69" value="- taskPriority: String" style="text;strokeColor=none;fillColor=none;align=left;verticalAlign=top;spacingLeft=4;spacingRight=4;overflow=hidden;rotatable=0;points=[[0,0.5],[1,0.5]];portConstraint=eastwest;container=0;fontStyle=0" vertex="1" parent="7B0drBum6s7SFeNLV9wR-52">
          <mxGeometry y="159" width="180" height="26" as="geometry" />
        </mxCell>
        <mxCell id="7B0drBum6s7SFeNLV9wR-58" value="- clientOrder: UUID" style="text;strokeColor=none;fillColor=none;align=left;verticalAlign=top;spacingLeft=4;spacingRight=4;overflow=hidden;rotatable=0;points=[[0,0.5],[1,0.5]];portConstraint=eastwest;container=0;fontStyle=0" vertex="1" parent="7B0drBum6s7SFeNLV9wR-52">
          <mxGeometry y="185" width="180" height="26" as="geometry" />
        </mxCell>
        <mxCell id="7B0drBum6s7SFeNLV9wR-59" value="- clientOrderSummary: String" style="text;strokeColor=none;fillColor=none;align=left;verticalAlign=top;spacingLeft=4;spacingRight=4;overflow=hidden;rotatable=0;points=[[0,0.5],[1,0.5]];portConstraint=eastwest;container=0;fontStyle=0" vertex="1" parent="7B0drBum6s7SFeNLV9wR-52">
          <mxGeometry y="211" width="180" height="26" as="geometry" />
        </mxCell>
        <mxCell id="7B0drBum6s7SFeNLV9wR-60" value="- internalOrder: UUID" style="text;strokeColor=none;fillColor=none;align=left;verticalAlign=top;spacingLeft=4;spacingRight=4;overflow=hidden;rotatable=0;points=[[0,0.5],[1,0.5]];portConstraint=eastwest;container=0;fontStyle=0" vertex="1" parent="7B0drBum6s7SFeNLV9wR-52">
          <mxGeometry y="237" width="180" height="26" as="geometry" />
        </mxCell>
        <mxCell id="7B0drBum6s7SFeNLV9wR-61" value="- internalOrderSummary: UUID" style="text;strokeColor=none;fillColor=none;align=left;verticalAlign=top;spacingLeft=4;spacingRight=4;overflow=hidden;rotatable=0;points=[[0,0.5],[1,0.5]];portConstraint=eastwest;container=0;fontStyle=0" vertex="1" parent="7B0drBum6s7SFeNLV9wR-52">
          <mxGeometry y="263" width="180" height="26" as="geometry" />
        </mxCell>
        <mxCell id="7B0drBum6s7SFeNLV9wR-62" value="- serviceType: UUID" style="text;strokeColor=none;fillColor=none;align=left;verticalAlign=top;spacingLeft=4;spacingRight=4;overflow=hidden;rotatable=0;points=[[0,0.5],[1,0.5]];portConstraint=eastwest;container=0;fontStyle=0" vertex="1" parent="7B0drBum6s7SFeNLV9wR-52">
          <mxGeometry y="289" width="180" height="26" as="geometry" />
        </mxCell>
        <mxCell id="7B0drBum6s7SFeNLV9wR-63" value="- serviceName: String" style="text;strokeColor=none;fillColor=none;align=left;verticalAlign=top;spacingLeft=4;spacingRight=4;overflow=hidden;rotatable=0;points=[[0,0.5],[1,0.5]];portConstraint=eastwest;container=0;fontStyle=0" vertex="1" parent="7B0drBum6s7SFeNLV9wR-52">
          <mxGeometry y="315" width="180" height="26" as="geometry" />
        </mxCell>
        <mxCell id="7B0drBum6s7SFeNLV9wR-66" value="- budgetLine: UUID" style="text;strokeColor=none;fillColor=none;align=left;verticalAlign=top;spacingLeft=4;spacingRight=4;overflow=hidden;rotatable=0;points=[[0,0.5],[1,0.5]];portConstraint=eastwest;container=0;fontStyle=0" vertex="1" parent="7B0drBum6s7SFeNLV9wR-52">
          <mxGeometry y="341" width="180" height="26" as="geometry" />
        </mxCell>
        <mxCell id="7B0drBum6s7SFeNLV9wR-67" value="- unitPrice: Float" style="text;strokeColor=none;fillColor=none;align=left;verticalAlign=top;spacingLeft=4;spacingRight=4;overflow=hidden;rotatable=0;points=[[0,0.5],[1,0.5]];portConstraint=eastwest;container=0;fontStyle=0" vertex="1" parent="7B0drBum6s7SFeNLV9wR-52">
          <mxGeometry y="367" width="180" height="26" as="geometry" />
        </mxCell>
        <mxCell id="7B0drBum6s7SFeNLV9wR-68" value="- isChange: Boolean" style="text;strokeColor=none;fillColor=none;align=left;verticalAlign=top;spacingLeft=4;spacingRight=4;overflow=hidden;rotatable=0;points=[[0,0.5],[1,0.5]];portConstraint=eastwest;container=0;fontStyle=0" vertex="1" parent="7B0drBum6s7SFeNLV9wR-52">
          <mxGeometry y="393" width="180" height="26" as="geometry" />
        </mxCell>
        <mxCell id="7B0drBum6s7SFeNLV9wR-73" style="edgeStyle=orthogonalEdgeStyle;rounded=0;orthogonalLoop=1;jettySize=auto;html=1;dashed=1;startArrow=none;startFill=0;endArrow=classic;endFill=1;startSize=5;endSize=5;" edge="1" parent="1" source="WtmbnqVcyweyvXS57DGl-1" target="WtmbnqVcyweyvXS57DGl-44">
          <mxGeometry relative="1" as="geometry">
            <Array as="points">
              <mxPoint x="748" y="388" />
              <mxPoint x="748" y="388" />
            </Array>
          </mxGeometry>
        </mxCell>
        <mxCell id="7B0drBum6s7SFeNLV9wR-75" value="&lt;div style=&quot;text-align: left&quot;&gt;&lt;b&gt;Task&lt;/b&gt;&lt;/div&gt;" style="swimlane;fontStyle=0;align=center;verticalAlign=middle;childLayout=stackLayout;horizontal=1;startSize=29;horizontalStack=0;resizeParent=1;resizeParentMax=0;resizeLast=0;collapsible=0;marginBottom=0;html=1;fontSize=12;labelPosition=center;verticalLabelPosition=middle;container=0;swimlaneLine=1;rounded=0;shadow=0;glass=0;sketch=0;perimeterSpacing=0;" vertex="1" parent="1">
          <mxGeometry x="842" y="1339" width="137" height="133" as="geometry" />
        </mxCell>
        <mxCell id="7B0drBum6s7SFeNLV9wR-76" value="id: UUID" style="text;strokeColor=none;fillColor=none;align=left;verticalAlign=top;spacingLeft=4;spacingRight=4;overflow=hidden;rotatable=0;points=[[0,0.5],[1,0.5]];portConstraint=eastwest;container=0;fontStyle=0" vertex="1" parent="7B0drBum6s7SFeNLV9wR-75">
          <mxGeometry y="29" width="137" height="26" as="geometry" />
        </mxCell>
        <mxCell id="7B0drBum6s7SFeNLV9wR-78" value="jiraId: UUID" style="text;strokeColor=none;fillColor=none;align=left;verticalAlign=top;spacingLeft=4;spacingRight=4;overflow=hidden;rotatable=0;points=[[0,0.5],[1,0.5]];portConstraint=eastwest;container=0;fontStyle=0" vertex="1" parent="7B0drBum6s7SFeNLV9wR-75">
          <mxGeometry y="55" width="137" height="26" as="geometry" />
        </mxCell>
        <mxCell id="7B0drBum6s7SFeNLV9wR-79" value="summary: String" style="text;strokeColor=none;fillColor=none;align=left;verticalAlign=top;spacingLeft=4;spacingRight=4;overflow=hidden;rotatable=0;points=[[0,0.5],[1,0.5]];portConstraint=eastwest;container=0;fontStyle=0" vertex="1" parent="7B0drBum6s7SFeNLV9wR-75">
          <mxGeometry y="81" width="137" height="26" as="geometry" />
        </mxCell>
        <mxCell id="7B0drBum6s7SFeNLV9wR-80" value="boardKey: String" style="text;strokeColor=none;fillColor=none;align=left;verticalAlign=top;spacingLeft=4;spacingRight=4;overflow=hidden;rotatable=0;points=[[0,0.5],[1,0.5]];portConstraint=eastwest;container=0;fontStyle=0" vertex="1" parent="7B0drBum6s7SFeNLV9wR-75">
          <mxGeometry y="107" width="137" height="26" as="geometry" />
        </mxCell>
        <mxCell id="7B0drBum6s7SFeNLV9wR-83" value="&lt;b&gt;&amp;lt;&amp;lt;enum&amp;gt;&amp;gt;&lt;/b&gt;&lt;br&gt;&lt;div style=&quot;text-align: left&quot;&gt;&lt;b&gt;SubTaskType&lt;/b&gt;&lt;br&gt;&lt;/div&gt;" style="swimlane;fontStyle=0;align=center;verticalAlign=middle;childLayout=stackLayout;horizontal=1;startSize=29;horizontalStack=0;resizeParent=1;resizeParentMax=0;resizeLast=0;collapsible=0;marginBottom=0;html=1;fontSize=12;labelPosition=center;verticalLabelPosition=middle;container=0;swimlaneLine=1;rounded=0;sketch=0;glass=0;" vertex="1" parent="1">
          <mxGeometry x="571" y="1421" width="151" height="185" as="geometry" />
        </mxCell>
        <mxCell id="7B0drBum6s7SFeNLV9wR-84" value="BUG" style="text;strokeColor=none;fillColor=none;align=left;verticalAlign=top;spacingLeft=4;spacingRight=4;overflow=hidden;rotatable=0;points=[[0,0.5],[1,0.5]];portConstraint=eastwest;container=0;fontStyle=0" vertex="1" parent="7B0drBum6s7SFeNLV9wR-83">
          <mxGeometry y="29" width="151" height="26" as="geometry" />
        </mxCell>
        <mxCell id="7B0drBum6s7SFeNLV9wR-85" value="US" style="text;strokeColor=none;fillColor=none;align=left;verticalAlign=top;spacingLeft=4;spacingRight=4;overflow=hidden;rotatable=0;points=[[0,0.5],[1,0.5]];portConstraint=eastwest;container=0;fontStyle=0" vertex="1" parent="7B0drBum6s7SFeNLV9wR-83">
          <mxGeometry y="55" width="151" height="26" as="geometry" />
        </mxCell>
        <mxCell id="7B0drBum6s7SFeNLV9wR-86" value="TASK" style="text;strokeColor=none;fillColor=none;align=left;verticalAlign=top;spacingLeft=4;spacingRight=4;overflow=hidden;rotatable=0;points=[[0,0.5],[1,0.5]];portConstraint=eastwest;container=0;fontStyle=0" vertex="1" parent="7B0drBum6s7SFeNLV9wR-83">
          <mxGeometry y="81" width="151" height="26" as="geometry" />
        </mxCell>
        <mxCell id="7B0drBum6s7SFeNLV9wR-87" value="SUB_TASK" style="text;strokeColor=none;fillColor=none;align=left;verticalAlign=top;spacingLeft=4;spacingRight=4;overflow=hidden;rotatable=0;points=[[0,0.5],[1,0.5]];portConstraint=eastwest;container=0;fontStyle=0" vertex="1" parent="7B0drBum6s7SFeNLV9wR-83">
          <mxGeometry y="107" width="151" height="26" as="geometry" />
        </mxCell>
        <mxCell id="7B0drBum6s7SFeNLV9wR-88" value="EPIC" style="text;strokeColor=none;fillColor=none;align=left;verticalAlign=top;spacingLeft=4;spacingRight=4;overflow=hidden;rotatable=0;points=[[0,0.5],[1,0.5]];portConstraint=eastwest;container=0;fontStyle=0" vertex="1" parent="7B0drBum6s7SFeNLV9wR-83">
          <mxGeometry y="133" width="151" height="26" as="geometry" />
        </mxCell>
        <mxCell id="7B0drBum6s7SFeNLV9wR-90" value="OTHER" style="text;strokeColor=none;fillColor=none;align=left;verticalAlign=top;spacingLeft=4;spacingRight=4;overflow=hidden;rotatable=0;points=[[0,0.5],[1,0.5]];portConstraint=eastwest;container=0;fontStyle=0" vertex="1" parent="7B0drBum6s7SFeNLV9wR-83">
          <mxGeometry y="159" width="151" height="26" as="geometry" />
        </mxCell>
        <mxCell id="7B0drBum6s7SFeNLV9wR-91" style="edgeStyle=orthogonalEdgeStyle;rounded=0;orthogonalLoop=1;jettySize=auto;html=1;dashed=1;startArrow=none;startFill=0;endArrow=classic;endFill=1;startSize=5;endSize=5;" edge="1" parent="1" source="7B0drBum6s7SFeNLV9wR-75" target="7B0drBum6s7SFeNLV9wR-83">
          <mxGeometry relative="1" as="geometry">
            <Array as="points">
              <mxPoint x="740" y="1456" />
              <mxPoint x="740" y="1456" />
            </Array>
          </mxGeometry>
        </mxCell>
        <mxCell id="7B0drBum6s7SFeNLV9wR-92" style="edgeStyle=orthogonalEdgeStyle;rounded=0;orthogonalLoop=1;jettySize=auto;html=1;startArrow=none;startFill=0;endArrow=none;endFill=0;startSize=5;endSize=5;" edge="1" parent="1" source="WtmbnqVcyweyvXS57DGl-136" target="7B0drBum6s7SFeNLV9wR-75">
          <mxGeometry relative="1" as="geometry">
            <Array as="points">
              <mxPoint x="911" y="975" />
              <mxPoint x="911" y="975" />
            </Array>
          </mxGeometry>
        </mxCell>
        <mxCell id="7B0drBum6s7SFeNLV9wR-93" value="*" style="edgeLabel;html=1;align=center;verticalAlign=middle;resizable=0;points=[];" vertex="1" connectable="0" parent="7B0drBum6s7SFeNLV9wR-92">
          <mxGeometry x="0.9143" y="2" relative="1" as="geometry">
            <mxPoint x="-2" as="offset" />
          </mxGeometry>
        </mxCell>
        <mxCell id="7B0drBum6s7SFeNLV9wR-94" value="1" style="edgeLabel;html=1;align=center;verticalAlign=middle;resizable=0;points=[];" vertex="1" connectable="0" parent="7B0drBum6s7SFeNLV9wR-92">
          <mxGeometry x="-0.9463" relative="1" as="geometry">
            <mxPoint x="-1" as="offset" />
          </mxGeometry>
        </mxCell>
        <mxCell id="7B0drBum6s7SFeNLV9wR-95" style="edgeStyle=orthogonalEdgeStyle;rounded=0;orthogonalLoop=1;jettySize=auto;html=1;startArrow=none;startFill=0;endArrow=none;endFill=0;startSize=5;endSize=5;" edge="1" parent="1" source="WtmbnqVcyweyvXS57DGl-77" target="7B0drBum6s7SFeNLV9wR-75">
          <mxGeometry relative="1" as="geometry">
            <Array as="points">
              <mxPoint x="767" y="1204" />
              <mxPoint x="767" y="1361" />
            </Array>
          </mxGeometry>
        </mxCell>
        <mxCell id="7B0drBum6s7SFeNLV9wR-96" value="*" style="edgeLabel;html=1;align=center;verticalAlign=middle;resizable=0;points=[];" vertex="1" connectable="0" parent="7B0drBum6s7SFeNLV9wR-95">
          <mxGeometry x="0.9692" y="-1" relative="1" as="geometry">
            <mxPoint as="offset" />
          </mxGeometry>
        </mxCell>
        <mxCell id="7B0drBum6s7SFeNLV9wR-97" value="1" style="edgeLabel;html=1;align=center;verticalAlign=middle;resizable=0;points=[];" vertex="1" connectable="0" parent="7B0drBum6s7SFeNLV9wR-95">
          <mxGeometry x="-0.9181" y="1" relative="1" as="geometry">
            <mxPoint as="offset" />
          </mxGeometry>
        </mxCell>
        <mxCell id="7B0drBum6s7SFeNLV9wR-98" style="edgeStyle=orthogonalEdgeStyle;rounded=0;orthogonalLoop=1;jettySize=auto;html=1;startArrow=none;startFill=0;endArrow=none;endFill=0;startSize=5;endSize=5;" edge="1" parent="1" source="7B0drBum6s7SFeNLV9wR-1" target="7B0drBum6s7SFeNLV9wR-75">
          <mxGeometry relative="1" as="geometry">
            <Array as="points">
              <mxPoint x="1096" y="1365" />
            </Array>
          </mxGeometry>
        </mxCell>
        <mxCell id="7B0drBum6s7SFeNLV9wR-99" value="*" style="edgeLabel;html=1;align=center;verticalAlign=middle;resizable=0;points=[];" vertex="1" connectable="0" parent="7B0drBum6s7SFeNLV9wR-98">
          <mxGeometry x="0.9344" relative="1" as="geometry">
            <mxPoint as="offset" />
          </mxGeometry>
        </mxCell>
        <mxCell id="7B0drBum6s7SFeNLV9wR-100" value="1" style="edgeLabel;html=1;align=center;verticalAlign=middle;resizable=0;points=[];" vertex="1" connectable="0" parent="7B0drBum6s7SFeNLV9wR-98">
          <mxGeometry x="-0.9291" relative="1" as="geometry">
            <mxPoint x="-1" as="offset" />
          </mxGeometry>
        </mxCell>
        <mxCell id="7B0drBum6s7SFeNLV9wR-101" style="edgeStyle=orthogonalEdgeStyle;rounded=0;orthogonalLoop=1;jettySize=auto;html=1;startArrow=none;startFill=0;endArrow=none;endFill=0;startSize=5;endSize=5;" edge="1" parent="1" source="7B0drBum6s7SFeNLV9wR-19" target="7B0drBum6s7SFeNLV9wR-75">
          <mxGeometry relative="1" as="geometry">
            <Array as="points">
              <mxPoint x="1333" y="1387" />
            </Array>
          </mxGeometry>
        </mxCell>
        <mxCell id="7B0drBum6s7SFeNLV9wR-102" value="*" style="edgeLabel;html=1;align=center;verticalAlign=middle;resizable=0;points=[];" vertex="1" connectable="0" parent="7B0drBum6s7SFeNLV9wR-101">
          <mxGeometry x="0.9711" y="1" relative="1" as="geometry">
            <mxPoint as="offset" />
          </mxGeometry>
        </mxCell>
        <mxCell id="7B0drBum6s7SFeNLV9wR-103" value="1" style="edgeLabel;html=1;align=center;verticalAlign=middle;resizable=0;points=[];" vertex="1" connectable="0" parent="7B0drBum6s7SFeNLV9wR-101">
          <mxGeometry x="-0.9617" relative="1" as="geometry">
            <mxPoint x="-1" as="offset" />
          </mxGeometry>
        </mxCell>
        <mxCell id="7B0drBum6s7SFeNLV9wR-104" style="edgeStyle=orthogonalEdgeStyle;rounded=0;orthogonalLoop=1;jettySize=auto;html=1;startArrow=none;startFill=0;endArrow=none;endFill=0;startSize=5;endSize=5;" edge="1" parent="1" source="7B0drBum6s7SFeNLV9wR-34" target="7B0drBum6s7SFeNLV9wR-75">
          <mxGeometry relative="1" as="geometry">
            <Array as="points">
              <mxPoint x="1546" y="1409" />
            </Array>
          </mxGeometry>
        </mxCell>
        <mxCell id="7B0drBum6s7SFeNLV9wR-105" value="*" style="edgeLabel;html=1;align=center;verticalAlign=middle;resizable=0;points=[];" vertex="1" connectable="0" parent="7B0drBum6s7SFeNLV9wR-104">
          <mxGeometry x="0.9783" y="1" relative="1" as="geometry">
            <mxPoint as="offset" />
          </mxGeometry>
        </mxCell>
        <mxCell id="7B0drBum6s7SFeNLV9wR-106" value="1" style="edgeLabel;html=1;align=center;verticalAlign=middle;resizable=0;points=[];" vertex="1" connectable="0" parent="7B0drBum6s7SFeNLV9wR-104">
          <mxGeometry x="-0.9562" y="1" relative="1" as="geometry">
            <mxPoint x="-1" as="offset" />
          </mxGeometry>
        </mxCell>
        <mxCell id="7B0drBum6s7SFeNLV9wR-107" style="edgeStyle=orthogonalEdgeStyle;rounded=0;orthogonalLoop=1;jettySize=auto;html=1;startArrow=none;startFill=0;endArrow=none;endFill=0;startSize=5;endSize=5;" edge="1" parent="1" source="7B0drBum6s7SFeNLV9wR-52" target="7B0drBum6s7SFeNLV9wR-75">
          <mxGeometry relative="1" as="geometry">
            <mxPoint x="911" y="1356" as="targetPoint" />
            <Array as="points">
              <mxPoint x="1770" y="1432" />
            </Array>
          </mxGeometry>
        </mxCell>
        <mxCell id="7B0drBum6s7SFeNLV9wR-108" value="*" style="edgeLabel;html=1;align=center;verticalAlign=middle;resizable=0;points=[];" vertex="1" connectable="0" parent="7B0drBum6s7SFeNLV9wR-107">
          <mxGeometry x="0.9785" relative="1" as="geometry">
            <mxPoint x="-1" as="offset" />
          </mxGeometry>
        </mxCell>
        <mxCell id="7B0drBum6s7SFeNLV9wR-109" value="1" style="edgeLabel;html=1;align=center;verticalAlign=middle;resizable=0;points=[];" vertex="1" connectable="0" parent="7B0drBum6s7SFeNLV9wR-107">
          <mxGeometry x="-0.9733" y="-1" relative="1" as="geometry">
            <mxPoint as="offset" />
          </mxGeometry>
        </mxCell>
      </root>
    </mxGraphModel>
  </diagram>
</mxfile>
